<?xml version="1.0" encoding="UTF-8" standalone="no"?>
<!-- Generator: Adobe Illustrator 9.0, SVG Export Plug-In  -->

<svg
   xmlns:dc="http://purl.org/dc/elements/1.1/"
   xmlns:cc="http://creativecommons.org/ns#"
   xmlns:rdf="http://www.w3.org/1999/02/22-rdf-syntax-ns#"
   xmlns:svg="http://www.w3.org/2000/svg"
   xmlns="http://www.w3.org/2000/svg"
   xmlns:xlink="http://www.w3.org/1999/xlink"
   xmlns:sodipodi="http://sodipodi.sourceforge.net/DTD/sodipodi-0.dtd"
   xmlns:inkscape="http://www.inkscape.org/namespaces/inkscape"
   width="144pt"
   height="144pt"
   viewBox="0 0 144 144"
   xml:space="preserve"
   id="svg2"
   sodipodi:version="0.32"
   inkscape:version="0.47 r22583"
   sodipodi:docname="folder-publicshare.svg"
   inkscape:output_extension="org.inkscape.output.svg.inkscape"
   version="1.1"><metadata
   id="metadata79"><rdf:RDF><cc:Work
       rdf:about=""><dc:format>image/svg+xml</dc:format><dc:type
         rdf:resource="http://purl.org/dc/dcmitype/StillImage" /><dc:title /></cc:Work></rdf:RDF></metadata><defs
   id="defs77"><inkscape:perspective
   sodipodi:type="inkscape:persp3d"
   inkscape:vp_x="0 : 90 : 1"
   inkscape:vp_y="0 : 1000 : 0"
   inkscape:vp_z="180 : 90 : 1"
   inkscape:persp3d-origin="90 : 60 : 1"
   id="perspective81" />
		
		
		
		<linearGradient
   y2="91.5278"
   x2="135.0703"
   y1="91.5278"
   x1="20.0801"
   gradientUnits="userSpaceOnUse"
   id="aigrd1">
			<stop
   id="stop12"
   style="stop-color:#B5E783"
   offset="0" />
			<stop
   id="stop14"
   style="stop-color:#009900"
   offset="1" />
		</linearGradient>
		
		<linearGradient
   y2="72.6827"
   x2="27.971"
   y1="99.2339"
   x1="96.667"
   gradientUnits="userSpaceOnUse"
   id="aigrd2">
			<stop
   id="stop18"
   style="stop-color:#004700"
   offset="0" />
			<stop
   id="stop20"
   style="stop-color:#008600"
   offset="1" />
		</linearGradient>
		
		
		<linearGradient
   y2="60.0444"
   x2="110.5547"
   y1="60.0444"
   x1="1.0996"
   gradientUnits="userSpaceOnUse"
   id="aigrd3">
			<stop
   id="stop26"
   style="stop-color:#DBA2B5"
   offset="0" />
			<stop
   id="stop28"
   style="stop-color:#955DC3"
   offset="1" />
		</linearGradient>
		
		
		<linearGradient
   y2="59.2544"
   x2="77.7916"
   y1="59.2544"
   x1="20.8477"
   gradientUnits="userSpaceOnUse"
   id="aigrd4">
			<stop
   id="stop34"
   style="stop-color:#FFFFFF"
   offset="0" />
			<stop
   id="stop36"
   style="stop-color:#EFCEE8"
   offset="1" />
		</linearGradient>
		
		<linearGradient
   y2="72.93"
   x2="93.7738"
   y1="64.7192"
   x1="35.4307"
   gradientUnits="userSpaceOnUse"
   id="aigrd5">
			<stop
   id="stop40"
   style="stop-color:#FFFFFF"
   offset="0" />
			<stop
   id="stop42"
   style="stop-color:#80FA41"
   offset="0.2079" />
			<stop
   id="stop44"
   style="stop-color:#007E00"
   offset="1" />
		</linearGradient>
		
		<linearGradient
   y2="83.0087"
   x2="127.8902"
   y1="108.9751"
   x1="74.0098"
   gradientUnits="userSpaceOnUse"
   id="aigrd6">
			<stop
   id="stop49"
   style="stop-color:#FFFFFF"
   offset="0" />
			<stop
   id="stop51"
   style="stop-color:#D190BC"
   offset="1" />
		</linearGradient>
		
		
		<linearGradient
   y2="54.342"
   x2="38.067"
   y1="80.2759"
   x1="105.166"
   gradientUnits="userSpaceOnUse"
   id="aigrd7">
			<stop
   id="stop56"
   style="stop-color:#004700"
   offset="0" />
			<stop
   id="stop58"
   style="stop-color:#008600"
   offset="1" />
		</linearGradient>
		
		<linearGradient
   y2="58.3286"
   x2="100.7382"
   y1="58.3286"
   x1="50.833"
   gradientUnits="userSpaceOnUse"
   id="aigrd8">
			<stop
   id="stop63"
   style="stop-color:#6ED84A"
   offset="0.1067" />
			<stop
   id="stop65"
   style="stop-color:#66CE44"
   offset="0.2294" />
			<stop
   id="stop67"
   style="stop-color:#4FB332"
   offset="0.407" />
			<stop
   id="stop69"
   style="stop-color:#278A17"
   offset="0.6171" />
			<stop
   id="stop71"
   style="stop-color:#006A00"
   offset="0.7753" />
			<stop
   id="stop73"
   style="stop-color:#003300"
   offset="1" />
		</linearGradient>
		
	<linearGradient
   inkscape:collect="always"
   xlink:href="#aigrd8"
   id="linearGradient2484"
   gradientUnits="userSpaceOnUse"
   x1="50.833"
   y1="58.3286"
   x2="100.7382"
   y2="58.3286" /><linearGradient
   inkscape:collect="always"
   xlink:href="#aigrd7"
   id="linearGradient2487"
   gradientUnits="userSpaceOnUse"
   x1="105.166"
   y1="80.2759"
   x2="38.067"
   y2="54.342" /><linearGradient
   inkscape:collect="always"
   xlink:href="#aigrd6"
   id="linearGradient2491"
   gradientUnits="userSpaceOnUse"
   x1="74.0098"
   y1="108.9751"
   x2="127.8902"
   y2="83.0087" /><linearGradient
   inkscape:collect="always"
   xlink:href="#aigrd5"
   id="linearGradient2494"
   gradientUnits="userSpaceOnUse"
   x1="35.4307"
   y1="64.7192"
   x2="93.7738"
   y2="72.93" /><linearGradient
   inkscape:collect="always"
   xlink:href="#aigrd4"
   id="linearGradient2497"
   gradientUnits="userSpaceOnUse"
   x1="20.8477"
   y1="59.2544"
   x2="77.7916"
   y2="59.2544" /><linearGradient
   inkscape:collect="always"
   xlink:href="#aigrd3"
   id="linearGradient2501"
   gradientUnits="userSpaceOnUse"
   x1="1.0996"
   y1="60.0444"
   x2="110.5547"
   y2="60.0444" /><linearGradient
   inkscape:collect="always"
   xlink:href="#aigrd2"
   id="linearGradient2505"
   gradientUnits="userSpaceOnUse"
   x1="96.667"
   y1="99.2339"
   x2="27.971"
   y2="72.6827" /><linearGradient
   inkscape:collect="always"
   xlink:href="#aigrd1"
   id="linearGradient2508"
   gradientUnits="userSpaceOnUse"
   x1="20.0801"
   y1="91.5278"
   x2="135.0703"
   y2="91.5278" /><linearGradient
   inkscape:collect="always"
   xlink:href="#aigrd1"
   id="linearGradient2573"
   gradientUnits="userSpaceOnUse"
   x1="20.0801"
   y1="91.5278"
   x2="135.0703"
   y2="91.5278" /><linearGradient
   inkscape:collect="always"
   xlink:href="#aigrd2"
   id="linearGradient2575"
   gradientUnits="userSpaceOnUse"
   x1="96.667"
   y1="99.2339"
   x2="27.971"
   y2="72.6827" /><linearGradient
   inkscape:collect="always"
   xlink:href="#aigrd3"
   id="linearGradient2577"
   gradientUnits="userSpaceOnUse"
   x1="1.0996"
   y1="60.0444"
   x2="110.5547"
   y2="60.0444" /><linearGradient
   inkscape:collect="always"
   xlink:href="#aigrd4"
   id="linearGradient2579"
   gradientUnits="userSpaceOnUse"
   x1="20.8477"
   y1="59.2544"
   x2="77.7916"
   y2="59.2544" /><linearGradient
   inkscape:collect="always"
   xlink:href="#aigrd5"
   id="linearGradient2581"
   gradientUnits="userSpaceOnUse"
   x1="35.4307"
   y1="64.7192"
   x2="93.7738"
   y2="72.93" /><linearGradient
   inkscape:collect="always"
   xlink:href="#aigrd6"
   id="linearGradient2583"
   gradientUnits="userSpaceOnUse"
   x1="74.0098"
   y1="108.9751"
   x2="127.8902"
   y2="83.0087" /><linearGradient
   inkscape:collect="always"
   xlink:href="#aigrd7"
   id="linearGradient2585"
   gradientUnits="userSpaceOnUse"
   x1="105.166"
   y1="80.2759"
   x2="38.067"
   y2="54.342" /><linearGradient
   inkscape:collect="always"
   xlink:href="#aigrd8"
   id="linearGradient2587"
   gradientUnits="userSpaceOnUse"
   x1="50.833"
   y1="58.3286"
   x2="100.7382"
   y2="58.3286" /><linearGradient
   inkscape:collect="always"
   xlink:href="#aigrd8"
   id="linearGradient2871"
   gradientUnits="userSpaceOnUse"
   x1="50.833"
   y1="58.3286"
   x2="100.7382"
   y2="58.3286"
   gradientTransform="matrix(1,0,0,1.0814799,-0.395603,-7.425709)" /><linearGradient
   inkscape:collect="always"
   xlink:href="#aigrd7"
   id="linearGradient2874"
   gradientUnits="userSpaceOnUse"
   x1="105.166"
   y1="80.2759"
   x2="38.067"
   y2="54.342"
   gradientTransform="matrix(1,0,0,1.0814799,-0.395603,-7.425709)" /><linearGradient
   inkscape:collect="always"
   xlink:href="#aigrd6"
   id="linearGradient2878"
   gradientUnits="userSpaceOnUse"
   x1="74.0098"
   y1="108.9751"
   x2="127.8902"
   y2="83.0087"
   gradientTransform="matrix(1,0,0,1.0814799,-0.395603,-7.425709)" /><linearGradient
   inkscape:collect="always"
   xlink:href="#aigrd5"
   id="linearGradient2881"
   gradientUnits="userSpaceOnUse"
   x1="35.4307"
   y1="64.7192"
   x2="93.7738"
   y2="72.93"
   gradientTransform="matrix(1,0,0,1.0814799,-0.395603,-7.425709)" /><linearGradient
   inkscape:collect="always"
   xlink:href="#aigrd4"
   id="linearGradient2884"
   gradientUnits="userSpaceOnUse"
   x1="20.8477"
   y1="59.2544"
   x2="77.7916"
   y2="59.2544"
   gradientTransform="matrix(1,0,0,1.0814799,-0.395603,-7.425709)" /><linearGradient
   inkscape:collect="always"
   xlink:href="#aigrd3"
   id="linearGradient2888"
   gradientUnits="userSpaceOnUse"
   x1="1.0996"
   y1="60.0444"
   x2="110.5547"
   y2="60.0444"
   gradientTransform="matrix(1,0,0,1.0814799,-0.395603,-7.425709)" /><linearGradient
   inkscape:collect="always"
   xlink:href="#aigrd2"
   id="linearGradient2892"
   gradientUnits="userSpaceOnUse"
   x1="96.667"
   y1="99.2339"
   x2="27.971"
   y2="72.6827"
   gradientTransform="matrix(1,0,0,1.0814799,-0.395603,-7.425709)" /><linearGradient
   inkscape:collect="always"
   xlink:href="#aigrd1"
   id="linearGradient2895"
   gradientUnits="userSpaceOnUse"
   x1="20.0801"
   y1="91.5278"
   x2="135.0703"
   y2="91.5278"
   gradientTransform="matrix(1,0,0,1.0814799,-0.395603,-7.425709)" /><inkscape:perspective
   id="perspective2915"
   inkscape:persp3d-origin="0.5 : 0.33333333 : 1"
   inkscape:vp_z="1 : 0.5 : 1"
   inkscape:vp_y="0 : 1000 : 0"
   inkscape:vp_x="0 : 0.5 : 1"
   sodipodi:type="inkscape:persp3d" /><linearGradient
   inkscape:collect="always"
   xlink:href="#aigrd8-9"
   id="linearGradient2871-7"
   gradientUnits="userSpaceOnUse"
   x1="50.833"
   y1="58.328602"
   x2="100.7382"
   y2="58.328602"
   gradientTransform="matrix(1,0,0,1.0814799,-0.4168536,-8.1832026)" /><linearGradient
   y2="58.328602"
   x2="100.7382"
   y1="58.328602"
   x1="50.833"
   gradientUnits="userSpaceOnUse"
   id="aigrd8-9"><stop
     id="stop63-3"
     style="stop-color:#6ED84A"
     offset="0.1067" /><stop
     id="stop65-9"
     style="stop-color:#66CE44"
     offset="0.2294" /><stop
     id="stop67-2"
     style="stop-color:#4FB332"
     offset="0.407" /><stop
     id="stop69-8"
     style="stop-color:#278A17"
     offset="0.6171" /><stop
     id="stop71-3"
     style="stop-color:#006A00"
     offset="0.7753" /><stop
     id="stop73-0"
     style="stop-color:#003300"
     offset="1" /></linearGradient><linearGradient
   inkscape:collect="always"
   xlink:href="#aigrd7-7"
   id="linearGradient2874-1"
   gradientUnits="userSpaceOnUse"
   x1="105.166"
   y1="80.275902"
   x2="38.067001"
   y2="54.341999"
   gradientTransform="matrix(1,0,0,1.0814799,-0.4168536,-8.1832026)" /><linearGradient
   y2="54.341999"
   x2="38.067001"
   y1="80.275902"
   x1="105.166"
   gradientUnits="userSpaceOnUse"
   id="aigrd7-7"><stop
     id="stop56-8"
     style="stop-color:#004700"
     offset="0" /><stop
     id="stop58-9"
     style="stop-color:#008600"
     offset="1" /></linearGradient><linearGradient
   inkscape:collect="always"
   xlink:href="#aigrd6-5"
   id="linearGradient2878-1"
   gradientUnits="userSpaceOnUse"
   x1="74.009804"
   y1="108.9751"
   x2="127.8902"
   y2="83.008698"
   gradientTransform="matrix(1,0,0,1.0814799,-0.4168536,-8.1832026)" /><linearGradient
   y2="83.008698"
   x2="127.8902"
   y1="108.9751"
   x1="74.009804"
   gradientUnits="userSpaceOnUse"
   id="aigrd6-5"><stop
     id="stop49-4"
     style="stop-color:#FFFFFF"
     offset="0" /><stop
     id="stop51-9"
     style="stop-color:#D190BC"
     offset="1" /></linearGradient><linearGradient
   inkscape:collect="always"
   xlink:href="#aigrd5-5"
   id="linearGradient2881-2"
   gradientUnits="userSpaceOnUse"
   x1="35.430698"
   y1="64.7192"
   x2="93.773804"
   y2="72.93"
   gradientTransform="matrix(1,0,0,1.0814799,-0.4168536,-8.1832026)" /><linearGradient
   y2="72.93"
   x2="93.773804"
   y1="64.7192"
   x1="35.430698"
   gradientUnits="userSpaceOnUse"
   id="aigrd5-5"><stop
     id="stop40-7"
     style="stop-color:#FFFFFF"
     offset="0" /><stop
     id="stop42-4"
     style="stop-color:#80FA41"
     offset="0.2079" /><stop
     id="stop44-9"
     style="stop-color:#007E00"
     offset="1" /></linearGradient><linearGradient
   inkscape:collect="always"
   xlink:href="#aigrd3-4"
   id="linearGradient2888-9"
   gradientUnits="userSpaceOnUse"
   x1="1.0996"
   y1="60.044399"
   x2="110.5547"
   y2="60.044399"
   gradientTransform="matrix(1,0,0,1.0814799,-0.395603,-7.425709)" /><linearGradient
   y2="60.044399"
   x2="110.5547"
   y1="60.044399"
   x1="1.0996"
   gradientUnits="userSpaceOnUse"
   id="aigrd3-4"><stop
     id="stop26-5"
     style="stop-color:#DBA2B5"
     offset="0" /><stop
     id="stop28-9"
     style="stop-color:#955DC3"
     offset="1" /></linearGradient><linearGradient
   inkscape:collect="always"
   xlink:href="#aigrd4-5"
   id="linearGradient2884-3"
   gradientUnits="userSpaceOnUse"
   x1="20.8477"
   y1="59.254398"
   x2="77.791603"
   y2="59.254398"
   gradientTransform="matrix(1,0,0,1.0814799,-0.395603,-7.425709)" /><linearGradient
   y2="59.254398"
   x2="77.791603"
   y1="59.254398"
   x1="20.8477"
   gradientUnits="userSpaceOnUse"
   id="aigrd4-5"><stop
     id="stop34-7"
     style="stop-color:#FFFFFF"
     offset="0" /><stop
     id="stop36-0"
     style="stop-color:#EFCEE8"
     offset="1" /></linearGradient><linearGradient
   inkscape:collect="always"
   xlink:href="#aigrd2-1"
   id="linearGradient2892-8"
   gradientUnits="userSpaceOnUse"
   x1="96.667"
   y1="99.233902"
   x2="27.971001"
   y2="72.682701"
   gradientTransform="matrix(1,0,0,1.0814799,-0.4168536,-8.1832026)" /><linearGradient
   y2="72.682701"
   x2="27.971001"
   y1="99.233902"
   x1="96.667"
   gradientUnits="userSpaceOnUse"
   id="aigrd2-1"><stop
     id="stop18-9"
     style="stop-color:#004700"
     offset="0" /><stop
     id="stop20-9"
     style="stop-color:#008600"
     offset="1" /></linearGradient><linearGradient
   inkscape:collect="always"
   xlink:href="#aigrd1-8"
   id="linearGradient2895-7"
   gradientUnits="userSpaceOnUse"
   x1="20.080099"
   y1="91.527802"
   x2="135.0703"
   y2="91.527802"
   gradientTransform="matrix(1,0,0,1.0814799,-0.4168536,-8.1832026)" /><linearGradient
   y2="91.527802"
   x2="135.0703"
   y1="91.527802"
   x1="20.080099"
   gradientUnits="userSpaceOnUse"
   id="aigrd1-8"><stop
     id="stop12-2"
     style="stop-color:#B5E783"
     offset="0" /><stop
     id="stop14-5"
     style="stop-color:#009900"
     offset="1" /></linearGradient><inkscape:perspective
   id="perspective9409"
   inkscape:persp3d-origin="0.5 : 0.33333333 : 1"
   inkscape:vp_z="1 : 0.5 : 1"
   inkscape:vp_y="0 : 1000 : 0"
   inkscape:vp_x="0 : 0.5 : 1"
   sodipodi:type="inkscape:persp3d" /><inkscape:perspective
   id="perspective3244"
   inkscape:persp3d-origin="0.5 : 0.33333333 : 1"
   inkscape:vp_z="1 : 0.5 : 1"
   inkscape:vp_y="0 : 1000 : 0"
   inkscape:vp_x="0 : 0.5 : 1"
   sodipodi:type="inkscape:persp3d" /><linearGradient
   inkscape:collect="always"
   xlink:href="#linearGradient4050"
   id="linearGradient3248"
   gradientUnits="userSpaceOnUse"
   x1="41.84375"
   y1="17.5"
   x2="41.84375"
   y2="35.47768"
   gradientTransform="translate(-17.876066,0.3629658)" /><linearGradient
   id="linearGradient4050"><stop
     style="stop-color:#000000;stop-opacity:0.779661;"
     offset="0"
     id="stop4052" /><stop
     style="stop-color:#000000;stop-opacity:0;"
     offset="1"
     id="stop4054" /></linearGradient><linearGradient
   y2="35.47768"
   x2="41.84375"
   y1="17.5"
   x1="41.84375"
   gradientTransform="matrix(4.5115378,0,0,4.5115378,-145.02508,-72.173654)"
   gradientUnits="userSpaceOnUse"
   id="linearGradient3253"
   xlink:href="#linearGradient4050"
   inkscape:collect="always" /><linearGradient
   inkscape:collect="always"
   xlink:href="#linearGradient4050"
   id="linearGradient2938"
   gradientUnits="userSpaceOnUse"
   gradientTransform="matrix(4.5115378,0,0,4.5115378,-150.21761,-76.2033)"
   x1="41.84375"
   y1="17.5"
   x2="41.84375"
   y2="35.47768" /></defs><sodipodi:namedview
   inkscape:window-height="827"
   inkscape:window-width="1600"
   inkscape:pageshadow="2"
   inkscape:pageopacity="0.0"
   guidetolerance="10.0"
   gridtolerance="10.0"
   objecttolerance="10.0"
   borderopacity="1.0"
   bordercolor="#8A4159"
   pagecolor="#FFFFFF"
   id="base"
   showgrid="false"
   inkscape:zoom="2.3142189"
   inkscape:cx="96.291271"
   inkscape:cy="102.22076"
   inkscape:window-x="0"
   inkscape:window-y="25"
   inkscape:current-layer="layer2"
   inkscape:window-maximized="1" />
	
<g
   inkscape:groupmode="layer"
   id="layer4"
   inkscape:label="shadow"
   style="display:inline"
   sodipodi:insensitive="true"><path
     style="opacity:0.2;fill:#000000;fill-rule:nonzero;stroke:none;display:inline"
     d="m 133.625,8.15625 c -0.64078,0.013519 -1.27812,0.1502306 -1.875,0.4375 l -34,16.34375 -1.59375,7.25 -4.34375,13.5 L 76.09375,53.28125 42.5625,70.75 54,98.78125 33.75,110 l -1.96875,-0.625 -8.6875,5.03125 c -1.365,0.7949 -2.275,2.25429 -2.46875,3.90625 -0.19375,1.65196 0.36,3.30601 1.5,4.4375 l 54.8125,54.46875 c 1.53,1.51812 3.80125,1.83417 5.625,0.75 l 92.40625,-54.90625 c 0.55625,-0.32985 0.98875,-0.79474 1.375,-1.3125 1.6975,-1.39781 2.3925,-3.88061 1.5625,-6.0625 l -0.0312,0 L 138.1875,11.375 c -0.49375,-1.297775 -1.4425,-2.3232875 -2.65625,-2.84375 -0.6075,-0.2615831 -1.26547,-0.3885191 -1.90625,-0.375 z"
     id="path7"
     transform="scale(0.8,0.8)"
     sodipodi:nodetypes="cccccccccccsccccccccsc" /></g><g
   inkscape:groupmode="layer"
   id="layer1"
   inkscape:label="below"
   style="display:inline"
   sodipodi:insensitive="true"><path
     d="m 58.997147,134.96798 -44.967,-44.686764 -0.18,-1.178814 75.837998,-44.101666 45.500005,44.686746 -76.191003,45.280498 0,0 z"
     style="fill:#ffffff;fill-rule:nonzero;stroke:none"
     id="path9" /><path
     d="m 62.447147,132.34754 -42.615,-41.269274 -0.169,-1.09013 71.868998,-40.729615 43.121005,41.267115 -72.206003,41.821904 0,0 z"
     style="fill:url(#linearGradient2895-7);fill-rule:nonzero;stroke:none"
     id="path11" /><path
     id="path22"
     d="m 92.122145,43.567774 43.578005,42.798484 c 0.914,0.898712 1.369,2.213792 1.225,3.535358 -0.146,1.31941 -0.876,2.48524 -1.961,3.1298 L 61.042147,136.96114 c -1.459,0.86734 -3.267,0.6305 -4.49,-0.584 l -43.857,-43.583644 c -0.912,-0.9052 -1.359,-2.22785 -1.204,-3.548334 0.155,-1.320488 0.896,-2.48308 1.987,-3.118992 L 87.672145,42.981612 c 1.448,-0.841391 3.235,-0.605628 4.45,0.586162 z m -2.611,3.047611 c -1.44,0.835983 -72.452998,42.134457 -74.192998,43.145641 0.917,0.91061 42.637,42.372394 43.857,43.582564 1.443,-0.85545 71.020003,-42.204754 73.918003,-43.927556 -2.407,-2.363032 -42.396005,-41.635896 -43.580005,-42.800649 l -0.0016,0.0011 0,-0.0011 z"
     style="fill:url(#linearGradient2892-8);fill-rule:nonzero;stroke:none" /></g><g
   inkscape:groupmode="layer"
   id="layer5"
   inkscape:label="mid-shadow"
   style="display:inline" /><g
   inkscape:groupmode="layer"
   id="layer2"
   inkscape:label="mid"
   style="display:inline"><path
     style="fill:url(#linearGradient2938);fill-opacity:1;stroke:none;display:inline"
     d="m 36.165295,2.7486118 c -7.68727,0 -13.95757,6.1293132 -13.95757,13.8165842 0,1.873772 0.45284,3.581361 1.12788,5.216466 -1.30169,-0.40085 -2.6472,-0.704928 -4.08858,-0.704928 -7.68727,0 -13.9575696,6.129313 -13.9575696,13.816585 0,3.703019 1.43918,7.084084 3.8066096,9.587018 -4.5288498,3.277863 -7.4722298,8.624227 -7.4722298,14.662497 0,0.035 2.8e-4,0.10568 0,0.14099 -2.3e-4,0.035 2.2e-4,0.10574 0,0.14098 -1.7e-4,0.035 -1.7e-4,0.1058 0,0.14099 l 0.14098,15.22644 c 3.3392702,4.48497 6.0969498,4.50516 8.3181498,-0.14099 l 0.14098,-15.08545 c -2.8e-4,-0.035 -3.9e-4,-0.10664 0,-0.14099 4e-4,-0.0344 -5e-4,-0.10585 0,-0.14098 5.1e-4,-0.035 0,-0.10366 0,-0.14099 0,-5.20021 4.10483,-9.446032 9.30505,-9.446032 5.20022,0 9.44603,4.245822 9.44603,9.446032 0,0.0372 -5e-4,0.10585 0,0.14099 5.7e-4,0.035 -4.5e-4,0.10664 0,0.14098 4.5e-4,0.0344 3.4e-4,0.10608 0,0.14099 l -0.42295,15.36742 c 2.67917,3.97364 5.59983,4.76967 9.02307,0 l 0,-15.36742 c 1.7e-4,-0.035 2.3e-4,-0.10574 0,-0.14099 -1.7e-4,-0.035 2.8e-4,-0.10568 0,-0.14098 -2.2e-4,-0.035 0,-0.10557 0,-0.14099 0,-6.217649 -3.23494,-11.697678 -8.03617,-14.944469 2.17766,-2.470794 3.52463,-5.742651 3.52463,-9.305046 0,-1.809713 -0.36712,-3.498094 -0.98689,-5.07548 1.30975,0.408858 2.6472,0.704927 4.08858,0.704927 2.57761,0 4.99433,-0.746777 7.04927,-1.973797 0.0395,3.646467 1.46998,6.975672 3.80661,9.446032 -4.52885,3.277863 -7.47223,8.624227 -7.47223,14.662498 0,0.03496 2.8e-4,0.105683 0,0.140985 -2.3e-4,0.03496 2.3e-4,0.10574 0,0.140986 -1.7e-4,0.03496 -1.7e-4,0.105794 0,0.140984 l 0.14099,15.22644 c 3.33927,4.48497 6.09694,4.50517 8.31814,-0.14098 l 0.14099,-15.08546 c -2.8e-4,-0.035 -4e-4,-0.10664 0,-0.140984 3.9e-4,-0.0344 -5.1e-4,-0.105852 0,-0.140986 5.1e-4,-0.03496 0,-0.103652 0,-0.140985 0,-5.200213 4.10482,-9.446032 9.30505,-9.446032 5.20022,0 9.44603,4.245819 9.44603,9.446032 0,0.03722 -5.7e-4,0.105852 0,0.140985 5.6e-4,0.03496 -4.5e-4,0.106642 0,0.140986 4.5e-4,0.0344 3.4e-4,0.106074 0,0.140984 l -0.42296,15.36743 c 2.67918,3.97364 5.59983,4.76966 9.02308,0 l 0,-15.36743 c 1.7e-4,-0.035 2.2e-4,-0.10574 0,-0.140984 -2.3e-4,-0.03496 2.8e-4,-0.105683 0,-0.140986 -2.3e-4,-0.03496 0,-0.10557 0,-0.140985 0,-6.217649 -3.235,-11.697679 -8.03618,-14.944469 2.17766,-2.470795 3.52464,-5.742652 3.52464,-9.305047 0,-7.687271 -6.12932,-13.816584 -13.81659,-13.816584 -2.65938,0 -5.07096,0.836952 -7.19026,2.114783 4.5e-4,-0.04737 0,-0.09345 0,-0.140986 0,-7.687271 -6.12932,-13.8165842 -13.81658,-13.8165842 z m 0,7.3312492 c 3.61752,0 6.48533,2.867798 6.48533,6.485335 0,3.617543 -2.86781,6.626321 -6.48533,6.626321 -3.61752,0 -6.62632,-3.008778 -6.62632,-6.626321 0,-3.617537 3.0088,-6.485335 6.62632,-6.485335 z m 21.00684,11.842786 c 3.61752,0 6.48534,2.867799 6.48534,6.485336 0,3.014621 -2.03617,5.564136 -4.79351,6.34435 -0.46807,-0.03666 -0.93242,-0.140985 -1.40985,-0.140985 -0.61904,0 -1.23064,0.07974 -1.83282,0.140985 -2.85281,-0.736435 -5.07548,-3.284512 -5.07548,-6.34435 0,-3.617537 3.0088,-6.485336 6.62632,-6.485336 z m -37.92511,6.485336 c 3.61752,0 6.48534,2.867799 6.48534,6.485336 0,3.014621 -2.03617,5.564136 -4.79351,6.34435 -0.46808,-0.03666 -0.93243,-0.140986 -1.40986,-0.140986 -0.61904,0 -1.23063,0.07974 -1.83281,0.140986 -2.85282,-0.736435 -5.07548,-3.284513 -5.07548,-6.34435 0,-3.617537 3.0088,-6.485336 6.62632,-6.485336 z"
     id="path2799" /></g><g
   inkscape:groupmode="layer"
   id="layer3"
   inkscape:label="top"
   style="display:inline"
   sodipodi:insensitive="true"><path
     d="m 53.224147,104.54594 c 0,0 -2.049,-28.453739 27.982998,-47.387208 C 111.17315,38.263116 101.98715,5.2498596 101.98715,5.2498596 l 22.867,60.0026684 -71.631003,39.293412 9.6e-4,0 z"
     style="opacity:0.5;fill:url(#linearGradient2871-7);fill-rule:nonzero;stroke:none;display:inline"
     id="path52" /><path
     id="path46"
     d="m 73.899147,31.631481 -0.356,-14.174957 29.087003,-13.9770474 32.652,85.8392214 -75.480003,44.885742 -30.69,-79.343852 44.787,-23.229107 0,0 z"
     style="opacity:0.6;fill:url(#linearGradient2881-2);fill-rule:nonzero;stroke:none;display:inline" /><path
     id="path60"
     d="m 103.42515,1.4106056 c 0.971,0.417451 1.742,1.241539 2.137,2.27976 l 31.75,83.4567244 c 0.737,1.936928 0.01,4.165856 -1.697,5.179206 L 62.268147,135.94346 c -0.961,0.57104 -2.104,0.67701 -3.144,0.28876 -1.037,-0.38824 -1.872,-1.23288 -2.293,-2.32086 l -29.71,-76.804539 c -0.2,-0.516947 -0.295,-1.054443 -0.295,-1.582205 0,-1.540027 0.806,-3.009759 2.176,-3.719208 0,0 34.507,-17.901738 42.207,-21.895643 -0.009,-0.369867 -0.289,-11.554532 -0.289,-11.592384 0,-1.624381 0.888,-3.098439 2.277,-3.764631 L 100.41115,1.4744136 c 0.955,-0.458548 2.042,-0.480178 3.014,-0.06381 l 0,0 z m -1.438,3.836009 C 99.961145,6.2177836 76.145147,17.664168 74.779147,18.322789 c 0.038,1.581123 0.333,13.295715 0.333,13.308692 0,0.515865 -0.27,0.988472 -0.697,1.208013 0,0 -41.711,21.636086 -43.729,22.686203 0.875,2.260293 28.72,74.242523 29.71,76.804543 2.236,-1.32914 71.488003,-42.510814 73.346003,-43.616086 -0.819,-2.144576 -30.845,-81.0698984 -31.754,-83.4664574 l -8e-4,-0.0011 z"
     style="fill:url(#linearGradient2874-1);fill-rule:nonzero;stroke:none;display:inline" /><path
     d="m 126.17515,65.015684 -76.555003,41.736476 10.005,27.4512 75.839003,-44.497486 -9.289,-24.69019 0,0 z"
     style="fill:url(#linearGradient2878-1);fill-rule:nonzero;stroke:none;display:inline"
     id="path38" /><path
     d="m 77.487147,34.53201 -0.342,-13.524988 27.184003,-13.0610334 -1.699,-4.466512 -29.087003,13.9770474 0.356,14.174957 -44.787,23.229107 30.689,79.341692 4.003,-2.38034 -29.06,-75.120674 42.742,-22.170338 9.6e-4,0.0011 z"
     style="opacity:0.75;fill:#ffffff;fill-rule:nonzero;stroke:none;display:inline"
     id="path39" /></g></svg>