<?xml version="1.0" encoding="UTF-8" standalone="no"?>
<!-- Generator: Adobe Illustrator 9.0, SVG Export Plug-In  -->

<svg
   xmlns:dc="http://purl.org/dc/elements/1.1/"
   xmlns:cc="http://creativecommons.org/ns#"
   xmlns:rdf="http://www.w3.org/1999/02/22-rdf-syntax-ns#"
   xmlns:svg="http://www.w3.org/2000/svg"
   xmlns="http://www.w3.org/2000/svg"
   xmlns:xlink="http://www.w3.org/1999/xlink"
   xmlns:sodipodi="http://sodipodi.sourceforge.net/DTD/sodipodi-0.dtd"
   xmlns:inkscape="http://www.inkscape.org/namespaces/inkscape"
   width="144pt"
   height="144pt"
   viewBox="0 0 144 144"
   xml:space="preserve"
   id="svg2"
   sodipodi:version="0.32"
   inkscape:version="0.47 r22583"
   sodipodi:docname="folder-music.svg"
   inkscape:output_extension="org.inkscape.output.svg.inkscape"
   version="1.1"><metadata
   id="metadata79"><rdf:RDF><cc:Work
       rdf:about=""><dc:format>image/svg+xml</dc:format><dc:type
         rdf:resource="http://purl.org/dc/dcmitype/StillImage" /><dc:title /></cc:Work></rdf:RDF></metadata><defs
   id="defs77"><inkscape:perspective
   sodipodi:type="inkscape:persp3d"
   inkscape:vp_x="0 : 90 : 1"
   inkscape:vp_y="0 : 1000 : 0"
   inkscape:vp_z="180 : 90 : 1"
   inkscape:persp3d-origin="90 : 60 : 1"
   id="perspective81" />
		
		
		
		<linearGradient
   y2="91.5278"
   x2="135.0703"
   y1="91.5278"
   x1="20.0801"
   gradientUnits="userSpaceOnUse"
   id="aigrd1">
			<stop
   id="stop12"
   style="stop-color:#B5E783"
   offset="0" />
			<stop
   id="stop14"
   style="stop-color:#009900"
   offset="1" />
		</linearGradient>
		
		<linearGradient
   y2="72.6827"
   x2="27.971"
   y1="99.2339"
   x1="96.667"
   gradientUnits="userSpaceOnUse"
   id="aigrd2">
			<stop
   id="stop18"
   style="stop-color:#004700"
   offset="0" />
			<stop
   id="stop20"
   style="stop-color:#008600"
   offset="1" />
		</linearGradient>
		
		
		<linearGradient
   y2="60.0444"
   x2="110.5547"
   y1="60.0444"
   x1="1.0996"
   gradientUnits="userSpaceOnUse"
   id="aigrd3">
			<stop
   id="stop26"
   style="stop-color:#DBA2B5"
   offset="0" />
			<stop
   id="stop28"
   style="stop-color:#955DC3"
   offset="1" />
		</linearGradient>
		
		
		<linearGradient
   y2="59.2544"
   x2="77.7916"
   y1="59.2544"
   x1="20.8477"
   gradientUnits="userSpaceOnUse"
   id="aigrd4">
			<stop
   id="stop34"
   style="stop-color:#FFFFFF"
   offset="0" />
			<stop
   id="stop36"
   style="stop-color:#EFCEE8"
   offset="1" />
		</linearGradient>
		
		<linearGradient
   y2="72.93"
   x2="93.7738"
   y1="64.7192"
   x1="35.4307"
   gradientUnits="userSpaceOnUse"
   id="aigrd5">
			<stop
   id="stop40"
   style="stop-color:#FFFFFF"
   offset="0" />
			<stop
   id="stop42"
   style="stop-color:#80FA41"
   offset="0.2079" />
			<stop
   id="stop44"
   style="stop-color:#007E00"
   offset="1" />
		</linearGradient>
		
		<linearGradient
   y2="83.0087"
   x2="127.8902"
   y1="108.9751"
   x1="74.0098"
   gradientUnits="userSpaceOnUse"
   id="aigrd6">
			<stop
   id="stop49"
   style="stop-color:#FFFFFF"
   offset="0" />
			<stop
   id="stop51"
   style="stop-color:#D190BC"
   offset="1" />
		</linearGradient>
		
		
		<linearGradient
   y2="54.342"
   x2="38.067"
   y1="80.2759"
   x1="105.166"
   gradientUnits="userSpaceOnUse"
   id="aigrd7">
			<stop
   id="stop56"
   style="stop-color:#004700"
   offset="0" />
			<stop
   id="stop58"
   style="stop-color:#008600"
   offset="1" />
		</linearGradient>
		
		<linearGradient
   y2="58.3286"
   x2="100.7382"
   y1="58.3286"
   x1="50.833"
   gradientUnits="userSpaceOnUse"
   id="aigrd8">
			<stop
   id="stop63"
   style="stop-color:#6ED84A"
   offset="0.1067" />
			<stop
   id="stop65"
   style="stop-color:#66CE44"
   offset="0.2294" />
			<stop
   id="stop67"
   style="stop-color:#4FB332"
   offset="0.407" />
			<stop
   id="stop69"
   style="stop-color:#278A17"
   offset="0.6171" />
			<stop
   id="stop71"
   style="stop-color:#006A00"
   offset="0.7753" />
			<stop
   id="stop73"
   style="stop-color:#003300"
   offset="1" />
		</linearGradient>
		
	<linearGradient
   inkscape:collect="always"
   xlink:href="#aigrd8"
   id="linearGradient2484"
   gradientUnits="userSpaceOnUse"
   x1="50.833"
   y1="58.3286"
   x2="100.7382"
   y2="58.3286" /><linearGradient
   inkscape:collect="always"
   xlink:href="#aigrd7"
   id="linearGradient2487"
   gradientUnits="userSpaceOnUse"
   x1="105.166"
   y1="80.2759"
   x2="38.067"
   y2="54.342" /><linearGradient
   inkscape:collect="always"
   xlink:href="#aigrd6"
   id="linearGradient2491"
   gradientUnits="userSpaceOnUse"
   x1="74.0098"
   y1="108.9751"
   x2="127.8902"
   y2="83.0087" /><linearGradient
   inkscape:collect="always"
   xlink:href="#aigrd5"
   id="linearGradient2494"
   gradientUnits="userSpaceOnUse"
   x1="35.4307"
   y1="64.7192"
   x2="93.7738"
   y2="72.93" /><linearGradient
   inkscape:collect="always"
   xlink:href="#aigrd4"
   id="linearGradient2497"
   gradientUnits="userSpaceOnUse"
   x1="20.8477"
   y1="59.2544"
   x2="77.7916"
   y2="59.2544" /><linearGradient
   inkscape:collect="always"
   xlink:href="#aigrd3"
   id="linearGradient2501"
   gradientUnits="userSpaceOnUse"
   x1="1.0996"
   y1="60.0444"
   x2="110.5547"
   y2="60.0444" /><linearGradient
   inkscape:collect="always"
   xlink:href="#aigrd2"
   id="linearGradient2505"
   gradientUnits="userSpaceOnUse"
   x1="96.667"
   y1="99.2339"
   x2="27.971"
   y2="72.6827" /><linearGradient
   inkscape:collect="always"
   xlink:href="#aigrd1"
   id="linearGradient2508"
   gradientUnits="userSpaceOnUse"
   x1="20.0801"
   y1="91.5278"
   x2="135.0703"
   y2="91.5278" /><linearGradient
   inkscape:collect="always"
   xlink:href="#aigrd1"
   id="linearGradient2573"
   gradientUnits="userSpaceOnUse"
   x1="20.0801"
   y1="91.5278"
   x2="135.0703"
   y2="91.5278" /><linearGradient
   inkscape:collect="always"
   xlink:href="#aigrd2"
   id="linearGradient2575"
   gradientUnits="userSpaceOnUse"
   x1="96.667"
   y1="99.2339"
   x2="27.971"
   y2="72.6827" /><linearGradient
   inkscape:collect="always"
   xlink:href="#aigrd3"
   id="linearGradient2577"
   gradientUnits="userSpaceOnUse"
   x1="1.0996"
   y1="60.0444"
   x2="110.5547"
   y2="60.0444" /><linearGradient
   inkscape:collect="always"
   xlink:href="#aigrd4"
   id="linearGradient2579"
   gradientUnits="userSpaceOnUse"
   x1="20.8477"
   y1="59.2544"
   x2="77.7916"
   y2="59.2544" /><linearGradient
   inkscape:collect="always"
   xlink:href="#aigrd5"
   id="linearGradient2581"
   gradientUnits="userSpaceOnUse"
   x1="35.4307"
   y1="64.7192"
   x2="93.7738"
   y2="72.93" /><linearGradient
   inkscape:collect="always"
   xlink:href="#aigrd6"
   id="linearGradient2583"
   gradientUnits="userSpaceOnUse"
   x1="74.0098"
   y1="108.9751"
   x2="127.8902"
   y2="83.0087" /><linearGradient
   inkscape:collect="always"
   xlink:href="#aigrd7"
   id="linearGradient2585"
   gradientUnits="userSpaceOnUse"
   x1="105.166"
   y1="80.2759"
   x2="38.067"
   y2="54.342" /><linearGradient
   inkscape:collect="always"
   xlink:href="#aigrd8"
   id="linearGradient2587"
   gradientUnits="userSpaceOnUse"
   x1="50.833"
   y1="58.3286"
   x2="100.7382"
   y2="58.3286" /><linearGradient
   inkscape:collect="always"
   xlink:href="#aigrd8"
   id="linearGradient2871"
   gradientUnits="userSpaceOnUse"
   x1="50.833"
   y1="58.3286"
   x2="100.7382"
   y2="58.3286"
   gradientTransform="matrix(1,0,0,1.0814799,-0.395603,-7.425709)" /><linearGradient
   inkscape:collect="always"
   xlink:href="#aigrd7"
   id="linearGradient2874"
   gradientUnits="userSpaceOnUse"
   x1="105.166"
   y1="80.2759"
   x2="38.067"
   y2="54.342"
   gradientTransform="matrix(1,0,0,1.0814799,-0.395603,-7.425709)" /><linearGradient
   inkscape:collect="always"
   xlink:href="#aigrd6"
   id="linearGradient2878"
   gradientUnits="userSpaceOnUse"
   x1="74.0098"
   y1="108.9751"
   x2="127.8902"
   y2="83.0087"
   gradientTransform="matrix(1,0,0,1.0814799,-0.395603,-7.425709)" /><linearGradient
   inkscape:collect="always"
   xlink:href="#aigrd5"
   id="linearGradient2881"
   gradientUnits="userSpaceOnUse"
   x1="35.4307"
   y1="64.7192"
   x2="93.7738"
   y2="72.93"
   gradientTransform="matrix(1,0,0,1.0814799,-0.395603,-7.425709)" /><linearGradient
   inkscape:collect="always"
   xlink:href="#aigrd4"
   id="linearGradient2884"
   gradientUnits="userSpaceOnUse"
   x1="20.8477"
   y1="59.2544"
   x2="77.7916"
   y2="59.2544"
   gradientTransform="matrix(1,0,0,1.0814799,-0.395603,-7.425709)" /><linearGradient
   inkscape:collect="always"
   xlink:href="#aigrd3"
   id="linearGradient2888"
   gradientUnits="userSpaceOnUse"
   x1="1.0996"
   y1="60.0444"
   x2="110.5547"
   y2="60.0444"
   gradientTransform="matrix(1,0,0,1.0814799,-0.395603,-7.425709)" /><linearGradient
   inkscape:collect="always"
   xlink:href="#aigrd2"
   id="linearGradient2892"
   gradientUnits="userSpaceOnUse"
   x1="96.667"
   y1="99.2339"
   x2="27.971"
   y2="72.6827"
   gradientTransform="matrix(1,0,0,1.0814799,-0.395603,-7.425709)" /><linearGradient
   inkscape:collect="always"
   xlink:href="#aigrd1"
   id="linearGradient2895"
   gradientUnits="userSpaceOnUse"
   x1="20.0801"
   y1="91.5278"
   x2="135.0703"
   y2="91.5278"
   gradientTransform="matrix(1,0,0,1.0814799,-0.395603,-7.425709)" /><inkscape:perspective
   id="perspective2915"
   inkscape:persp3d-origin="0.5 : 0.33333333 : 1"
   inkscape:vp_z="1 : 0.5 : 1"
   inkscape:vp_y="0 : 1000 : 0"
   inkscape:vp_x="0 : 0.5 : 1"
   sodipodi:type="inkscape:persp3d" /><linearGradient
   inkscape:collect="always"
   xlink:href="#aigrd8-9"
   id="linearGradient2871-7"
   gradientUnits="userSpaceOnUse"
   x1="50.833"
   y1="58.328602"
   x2="100.7382"
   y2="58.328602"
   gradientTransform="matrix(1,0,0,1.0814799,-0.4168536,-8.1832026)" /><linearGradient
   y2="58.328602"
   x2="100.7382"
   y1="58.328602"
   x1="50.833"
   gradientUnits="userSpaceOnUse"
   id="aigrd8-9"><stop
     id="stop63-3"
     style="stop-color:#6ED84A"
     offset="0.1067" /><stop
     id="stop65-9"
     style="stop-color:#66CE44"
     offset="0.2294" /><stop
     id="stop67-2"
     style="stop-color:#4FB332"
     offset="0.407" /><stop
     id="stop69-8"
     style="stop-color:#278A17"
     offset="0.6171" /><stop
     id="stop71-3"
     style="stop-color:#006A00"
     offset="0.7753" /><stop
     id="stop73-0"
     style="stop-color:#003300"
     offset="1" /></linearGradient><linearGradient
   inkscape:collect="always"
   xlink:href="#aigrd7-7"
   id="linearGradient2874-1"
   gradientUnits="userSpaceOnUse"
   x1="105.166"
   y1="80.275902"
   x2="38.067001"
   y2="54.341999"
   gradientTransform="matrix(1,0,0,1.0814799,-0.4168536,-8.1832026)" /><linearGradient
   y2="54.341999"
   x2="38.067001"
   y1="80.275902"
   x1="105.166"
   gradientUnits="userSpaceOnUse"
   id="aigrd7-7"><stop
     id="stop56-8"
     style="stop-color:#004700"
     offset="0" /><stop
     id="stop58-9"
     style="stop-color:#008600"
     offset="1" /></linearGradient><linearGradient
   inkscape:collect="always"
   xlink:href="#aigrd6-5"
   id="linearGradient2878-1"
   gradientUnits="userSpaceOnUse"
   x1="74.009804"
   y1="108.9751"
   x2="127.8902"
   y2="83.008698"
   gradientTransform="matrix(1,0,0,1.0814799,-0.4168536,-8.1832026)" /><linearGradient
   y2="83.008698"
   x2="127.8902"
   y1="108.9751"
   x1="74.009804"
   gradientUnits="userSpaceOnUse"
   id="aigrd6-5"><stop
     id="stop49-4"
     style="stop-color:#FFFFFF"
     offset="0" /><stop
     id="stop51-9"
     style="stop-color:#D190BC"
     offset="1" /></linearGradient><linearGradient
   inkscape:collect="always"
   xlink:href="#aigrd5-5"
   id="linearGradient2881-2"
   gradientUnits="userSpaceOnUse"
   x1="35.430698"
   y1="64.7192"
   x2="93.773804"
   y2="72.93"
   gradientTransform="matrix(1,0,0,1.0814799,-0.4168536,-8.1832026)" /><linearGradient
   y2="72.93"
   x2="93.773804"
   y1="64.7192"
   x1="35.430698"
   gradientUnits="userSpaceOnUse"
   id="aigrd5-5"><stop
     id="stop40-7"
     style="stop-color:#FFFFFF"
     offset="0" /><stop
     id="stop42-4"
     style="stop-color:#80FA41"
     offset="0.2079" /><stop
     id="stop44-9"
     style="stop-color:#007E00"
     offset="1" /></linearGradient><linearGradient
   inkscape:collect="always"
   xlink:href="#aigrd3-4"
   id="linearGradient2888-9"
   gradientUnits="userSpaceOnUse"
   x1="1.0996"
   y1="60.044399"
   x2="110.5547"
   y2="60.044399"
   gradientTransform="matrix(1,0,0,1.0814799,-0.395603,-7.425709)" /><linearGradient
   y2="60.044399"
   x2="110.5547"
   y1="60.044399"
   x1="1.0996"
   gradientUnits="userSpaceOnUse"
   id="aigrd3-4"><stop
     id="stop26-5"
     style="stop-color:#DBA2B5"
     offset="0" /><stop
     id="stop28-9"
     style="stop-color:#955DC3"
     offset="1" /></linearGradient><linearGradient
   inkscape:collect="always"
   xlink:href="#aigrd4-5"
   id="linearGradient2884-3"
   gradientUnits="userSpaceOnUse"
   x1="20.8477"
   y1="59.254398"
   x2="77.791603"
   y2="59.254398"
   gradientTransform="matrix(1,0,0,1.0814799,-0.395603,-7.425709)" /><linearGradient
   y2="59.254398"
   x2="77.791603"
   y1="59.254398"
   x1="20.8477"
   gradientUnits="userSpaceOnUse"
   id="aigrd4-5"><stop
     id="stop34-7"
     style="stop-color:#FFFFFF"
     offset="0" /><stop
     id="stop36-0"
     style="stop-color:#EFCEE8"
     offset="1" /></linearGradient><linearGradient
   inkscape:collect="always"
   xlink:href="#aigrd2-1"
   id="linearGradient2892-8"
   gradientUnits="userSpaceOnUse"
   x1="96.667"
   y1="99.233902"
   x2="27.971001"
   y2="72.682701"
   gradientTransform="matrix(1,0,0,1.0814799,-0.4168536,-8.1832026)" /><linearGradient
   y2="72.682701"
   x2="27.971001"
   y1="99.233902"
   x1="96.667"
   gradientUnits="userSpaceOnUse"
   id="aigrd2-1"><stop
     id="stop18-9"
     style="stop-color:#004700"
     offset="0" /><stop
     id="stop20-9"
     style="stop-color:#008600"
     offset="1" /></linearGradient><linearGradient
   inkscape:collect="always"
   xlink:href="#aigrd1-8"
   id="linearGradient2895-7"
   gradientUnits="userSpaceOnUse"
   x1="20.080099"
   y1="91.527802"
   x2="135.0703"
   y2="91.527802"
   gradientTransform="matrix(1,0,0,1.0814799,-0.4168536,-8.1832026)" /><linearGradient
   y2="91.527802"
   x2="135.0703"
   y1="91.527802"
   x1="20.080099"
   gradientUnits="userSpaceOnUse"
   id="aigrd1-8"><stop
     id="stop12-2"
     style="stop-color:#B5E783"
     offset="0" /><stop
     id="stop14-5"
     style="stop-color:#009900"
     offset="1" /></linearGradient><inkscape:perspective
   id="perspective3229"
   inkscape:persp3d-origin="0.5 : 0.33333333 : 1"
   inkscape:vp_z="1 : 0.5 : 1"
   inkscape:vp_y="0 : 1000 : 0"
   inkscape:vp_x="0 : 0.5 : 1"
   sodipodi:type="inkscape:persp3d" /><linearGradient
   inkscape:collect="always"
   xlink:href="#linearGradient4262"
   id="linearGradient4268"
   x1="22.506031"
   y1="18.860346"
   x2="22.506031"
   y2="34.860481"
   gradientUnits="userSpaceOnUse"
   gradientTransform="matrix(1.3175924,0,0,1.3175924,-5.6537745,-8.8484713)" /><linearGradient
   id="linearGradient4262"><stop
     style="stop-color:#000000;stop-opacity:0.81355929;"
     offset="0"
     id="stop4264" /><stop
     style="stop-color:#000000;stop-opacity:0.23728813;"
     offset="1"
     id="stop4266" /></linearGradient><inkscape:perspective
   id="perspective3259"
   inkscape:persp3d-origin="0.5 : 0.33333333 : 1"
   inkscape:vp_z="1 : 0.5 : 1"
   inkscape:vp_y="0 : 1000 : 0"
   inkscape:vp_x="0 : 0.5 : 1"
   sodipodi:type="inkscape:persp3d" /><linearGradient
   inkscape:collect="always"
   xlink:href="#linearGradient4177"
   id="linearGradient3233"
   gradientUnits="userSpaceOnUse"
   x1="23.78125"
   y1="16.9375"
   x2="23.78125"
   y2="36.9375" /><linearGradient
   id="linearGradient4177"><stop
     style="stop-color:#000000;stop-opacity:0.78813559;"
     offset="0"
     id="stop4179" /><stop
     style="stop-color:#000000;stop-opacity:0.20338982;"
     offset="1"
     id="stop4181" /></linearGradient><linearGradient
   id="linearGradient3268"><stop
     style="stop-color:#000000;stop-opacity:0.78813559;"
     offset="0"
     id="stop3270" /><stop
     style="stop-color:#000000;stop-opacity:0.20338982;"
     offset="1"
     id="stop3272" /></linearGradient><linearGradient
   id="linearGradient3275"><stop
     style="stop-color:#000000;stop-opacity:0.78813559;"
     offset="0"
     id="stop3277" /><stop
     style="stop-color:#000000;stop-opacity:0.20338982;"
     offset="1"
     id="stop3279" /></linearGradient><linearGradient
   inkscape:collect="always"
   xlink:href="#linearGradient4177"
   id="linearGradient3851"
   gradientUnits="userSpaceOnUse"
   gradientTransform="matrix(0.8,0,0,0.8,-1.222802,141.83462)"
   x1="23.78125"
   y1="16.9375"
   x2="23.78125"
   y2="36.9375" /><linearGradient
   inkscape:collect="always"
   xlink:href="#linearGradient4177"
   id="linearGradient3853"
   gradientUnits="userSpaceOnUse"
   gradientTransform="matrix(0.80670824,0,0,0.8,-1.331046,144.01241)"
   x1="23.78125"
   y1="16.9375"
   x2="23.78125"
   y2="36.9375" /><linearGradient
   inkscape:collect="always"
   xlink:href="#linearGradient4177"
   id="linearGradient3855"
   gradientUnits="userSpaceOnUse"
   gradientTransform="matrix(0.50839399,0,0,0.42619854,10.195308,152.21265)"
   x1="23.78125"
   y1="16.9375"
   x2="23.78125"
   y2="36.9375" /><linearGradient
   inkscape:collect="always"
   xlink:href="#linearGradient4177"
   id="linearGradient3861"
   gradientUnits="userSpaceOnUse"
   gradientTransform="matrix(0.8,0,0,0.8,-1.222802,141.83462)"
   x1="23.78125"
   y1="16.9375"
   x2="23.78125"
   y2="36.9375" /><linearGradient
   inkscape:collect="always"
   xlink:href="#linearGradient4177"
   id="linearGradient3863"
   gradientUnits="userSpaceOnUse"
   gradientTransform="matrix(0.80670824,0,0,0.8,-1.331046,144.01241)"
   x1="23.78125"
   y1="16.9375"
   x2="23.78125"
   y2="36.9375" /><linearGradient
   inkscape:collect="always"
   xlink:href="#linearGradient4177"
   id="linearGradient3865"
   gradientUnits="userSpaceOnUse"
   gradientTransform="matrix(0.50839399,0,0,0.42619854,10.195308,152.21265)"
   x1="23.78125"
   y1="16.9375"
   x2="23.78125"
   y2="36.9375" /></defs><sodipodi:namedview
   inkscape:window-height="827"
   inkscape:window-width="1600"
   inkscape:pageshadow="2"
   inkscape:pageopacity="0.0"
   guidetolerance="10.0"
   gridtolerance="10.0"
   objecttolerance="10.0"
   borderopacity="1.0"
   bordercolor="#8A4159"
   pagecolor="#FFFFFF"
   id="base"
   showgrid="false"
   inkscape:zoom="2.0222222"
   inkscape:cx="-92.96236"
   inkscape:cy="49.447286"
   inkscape:window-x="0"
   inkscape:window-y="25"
   inkscape:current-layer="layer2"
   inkscape:window-maximized="1" />
	
<g
   inkscape:groupmode="layer"
   id="layer4"
   inkscape:label="shadow"
   style="display:inline"><path
     style="opacity:0.2;fill:#000000;fill-rule:nonzero;stroke:none;display:inline"
     d="m 133.625,8.15625 c -0.64078,0.013519 -1.27812,0.1502306 -1.875,0.4375 l -34,16.34375 -1.59375,7.25 -4.34375,13.5 L 76.09375,53.28125 42.5625,70.75 54,98.78125 33.75,110 l -1.96875,-0.625 -8.6875,5.03125 c -1.365,0.7949 -2.275,2.25429 -2.46875,3.90625 -0.19375,1.65196 0.36,3.30601 1.5,4.4375 l 54.8125,54.46875 c 1.53,1.51812 3.80125,1.83417 5.625,0.75 l 92.40625,-54.90625 c 0.55625,-0.32985 0.98875,-0.79474 1.375,-1.3125 1.6975,-1.39781 2.3925,-3.88061 1.5625,-6.0625 l -0.0312,0 L 138.1875,11.375 c -0.49375,-1.297775 -1.4425,-2.3232875 -2.65625,-2.84375 -0.6075,-0.2615831 -1.26547,-0.3885191 -1.90625,-0.375 z"
     id="path7"
     transform="scale(0.8,0.8)"
     sodipodi:nodetypes="cccccccccccsccccccccsc" /></g><g
   inkscape:groupmode="layer"
   id="layer1"
   inkscape:label="below"
   style="display:inline"><path
     d="m 58.997147,134.96798 -44.967,-44.686764 -0.18,-1.178814 75.837998,-44.101666 45.500005,44.686746 -76.191003,45.280498 0,0 z"
     style="fill:#ffffff;fill-rule:nonzero;stroke:none"
     id="path9" /><path
     d="m 62.447147,132.34754 -42.615,-41.269274 -0.169,-1.09013 71.868998,-40.729615 43.121005,41.267115 -72.206003,41.821904 0,0 z"
     style="fill:url(#linearGradient2895-7);fill-rule:nonzero;stroke:none"
     id="path11" /><path
     id="path22"
     d="m 92.122145,43.567774 43.578005,42.798484 c 0.914,0.898712 1.369,2.213792 1.225,3.535358 -0.146,1.31941 -0.876,2.48524 -1.961,3.1298 L 61.042147,136.96114 c -1.459,0.86734 -3.267,0.6305 -4.49,-0.584 l -43.857,-43.583644 c -0.912,-0.9052 -1.359,-2.22785 -1.204,-3.548334 0.155,-1.320488 0.896,-2.48308 1.987,-3.118992 L 87.672145,42.981612 c 1.448,-0.841391 3.235,-0.605628 4.45,0.586162 z m -2.611,3.047611 c -1.44,0.835983 -72.452998,42.134457 -74.192998,43.145641 0.917,0.91061 42.637,42.372394 43.857,43.582564 1.443,-0.85545 71.020003,-42.204754 73.918003,-43.927556 -2.407,-2.363032 -42.396005,-41.635896 -43.580005,-42.800649 l -0.0016,0.0011 0,-0.0011 z"
     style="fill:url(#linearGradient2892-8);fill-rule:nonzero;stroke:none" /></g><g
   inkscape:groupmode="layer"
   id="layer5"
   inkscape:label="mid-shadow"
   style="display:inline" /><g
   inkscape:groupmode="layer"
   id="layer2"
   inkscape:label="mid"
   style="display:inline"><g
     style="display:inline"
     id="g3846"
     transform="matrix(4.8617116,-0.01412914,0.01412914,4.8617116,-37.033462,-741.85762)"><path
       id="path3231"
       d="m 11.402198,155.38462 c -0.8864,0 -1.6,0.7136 -1.6,1.6 l 0,12.8 c 0,0.8864 0.7136,1.6 1.6,1.6 l 12.8,0 c 0.8864,0 1.6,-0.7136 1.6,-1.6 l 0,-12.8 c 0,-0.8864 -0.7136,-1.6 -1.6,-1.6 l -12.8,0 z m -0.15,1.45 13.1,0 0,13.1 -13.1,0 0,-13.1 z m 4.425,0.75 c -0.771866,0 -1.410638,0.62451 -1.475,1.425 -0.07998,-0.0156 -0.14077,-0.025 -0.225,-0.025 -0.746068,0 -1.375,0.63416 -1.375,1.425 0,0.7414 0.543601,1.35128 1.225,1.425 l 0,0.025 4.625,0 0,-0.05 c 0.545152,-0.0391 0.975,-0.51227 0.975,-1.1 0,-0.61333 -0.471393,-1.1 -1.05,-1.1 -0.04704,0 -0.104597,-0.006 -0.15,0 0.01135,-0.0573 0.025,-0.11428 0.025,-0.175 0,-0.50008 -0.399926,-0.9 -0.9,-0.9 -0.103611,0 -0.207409,0.0177 -0.3,0.05 -0.215827,-0.57985 -0.751234,-1 -1.375,-1 z m 0,0.625 c 0.413631,0 0.756482,0.31726 0.85,0.725 0.15119,0.58102 0.386315,0.41534 0.625,0.2 0.05566,-0.0342 0.130266,-0.075 0.2,-0.075 0.201643,0 0.35,0.17335 0.35,0.375 0,0.1693 -0.09335,0.30951 -0.25,0.35 0.0014,0.005 -0.0013,0.0197 0,0.025 0.05029,0.30533 0.161562,0.54863 0.5,0.425 0.111089,-0.10908 0.260794,-0.175 0.425,-0.175 0.344846,0 0.625,0.28446 0.625,0.65 0,0.33882 -0.240214,0.61109 -0.55,0.65 l -4.6,-0.025 c -0.370312,0.0149 -0.645102,-0.52342 -0.7,-0.925 0,-0.47133 0.38035,-0.85 0.825,-0.85 0.08745,0 0.170741,0.0227 0.25,0.05 0.63045,0.32428 1.116,0.47831 0.575,-0.4 -0.0014,-0.0174 0,-0.0577 0,-0.075 0,-0.51461 0.38952,-0.925 0.875,-0.925 z"
       style="fill:url(#linearGradient3861);fill-opacity:1;display:inline" /><path
       id="rect4162"
       d="m 16.114019,163.73741 c -0.05946,0 -0.136302,0.041 -0.201677,0.075 -0.04065,0.0211 -0.06218,0.0206 -0.07563,0.025 a 0.15789022,0.13774394 0 0 1 -0.02522,0.025 c -0.04278,0.0245 -0.08331,0.019 -0.100838,0.025 l -3.907493,3.4 c -0.156236,0.1363 -0.156236,0.3387 0,0.475 l 0.428564,0.375 c 0.161233,0.14066 0.342957,0.14066 0.504192,0 l 3.201623,-2.8 a 0.15789022,0.13774394 0 0 1 0.02522,-0.025 0.15789022,0.13774394 0 0 1 0.02521,0 0.15789022,0.13774394 0 0 1 0.02521,0 0.15789022,0.13774394 0 0 1 0.05042,0 0.15789022,0.13774394 0 0 1 0.02521,0 0.15789022,0.13774394 0 0 1 0.02521,0 0.15789022,0.13774394 0 0 1 0.05042,0 0.15789022,0.13774394 0 0 1 0.02521,0.025 l 3.125994,2.725 c 0.151236,0.13194 0.453796,0.13194 0.605032,0 l 0.378144,-0.35 c 0.156234,-0.1363 0.156234,-0.3387 0,-0.475 l -3.907492,-3.4 c -0.07697,-0.0671 -0.163544,-0.1 -0.277307,-0.1 z"
       style="fill:url(#linearGradient3863);fill-opacity:1;display:inline" /><path
       style="fill:url(#linearGradient3865);fill-opacity:1;display:inline"
       d="m 21.189328,162.72111 c -0.03747,0 -0.0859,0.0218 -0.127098,0.04 -0.02562,0.0113 -0.03919,0.011 -0.04766,0.0133 a 0.09950368,0.07338283 0 0 1 -0.01589,0.0133 c -0.02696,0.013 -0.0525,0.0101 -0.06355,0.0133 l -2.462533,1.81134 c -0.09846,0.0726 -0.09846,0.18044 0,0.25306 l 0.270084,0.19978 c 0.101611,0.0749 0.216135,0.0749 0.317747,0 l 2.017684,-1.4917 a 0.09950368,0.07338283 0 0 1 0.01589,-0.0133 0.09950368,0.07338283 0 0 1 0.01589,0 0.09950368,0.07338283 0 0 1 0.01589,0 0.09950368,0.07338283 0 0 1 0.03178,0 0.09950368,0.07338283 0 0 1 0.01589,0 0.09950368,0.07338283 0 0 1 0.01589,0 0.09950368,0.07338283 0 0 1 0.03178,0 0.09950368,0.07338283 0 0 1 0.01589,0.0133 l 1.970027,1.45174 c 0.09531,0.0703 0.285986,0.0703 0.381295,0 l 0.23831,-0.18646 c 0.09846,-0.0726 0.09846,-0.18044 0,-0.25306 l -2.462553,-1.81134 c -0.0485,-0.0358 -0.103067,-0.0533 -0.174761,-0.0533 z"
       id="path3239" /></g></g><g
   inkscape:groupmode="layer"
   id="layer3"
   inkscape:label="top"
   style="display:inline"><path
     d="m 53.224147,104.54594 c 0,0 -2.049,-28.453739 27.982998,-47.387208 C 111.17315,38.263116 101.98715,5.2498596 101.98715,5.2498596 l 22.867,60.0026684 -71.631003,39.293412 9.6e-4,0 z"
     style="opacity:0.5;fill:url(#linearGradient2871-7);fill-rule:nonzero;stroke:none;display:inline"
     id="path52" /><path
     id="path46"
     d="m 73.899147,31.631481 -0.356,-14.174957 29.087003,-13.9770474 32.652,85.8392214 -75.480003,44.885742 -30.69,-79.343852 44.787,-23.229107 0,0 z"
     style="opacity:0.6;fill:url(#linearGradient2881-2);fill-rule:nonzero;stroke:none;display:inline" /><path
     id="path60"
     d="m 103.42515,1.4106056 c 0.971,0.417451 1.742,1.241539 2.137,2.27976 l 31.75,83.4567244 c 0.737,1.936928 0.01,4.165856 -1.697,5.179206 L 62.268147,135.94346 c -0.961,0.57104 -2.104,0.67701 -3.144,0.28876 -1.037,-0.38824 -1.872,-1.23288 -2.293,-2.32086 l -29.71,-76.804539 c -0.2,-0.516947 -0.295,-1.054443 -0.295,-1.582205 0,-1.540027 0.806,-3.009759 2.176,-3.719208 0,0 34.507,-17.901738 42.207,-21.895643 -0.009,-0.369867 -0.289,-11.554532 -0.289,-11.592384 0,-1.624381 0.888,-3.098439 2.277,-3.764631 L 100.41115,1.4744136 c 0.955,-0.458548 2.042,-0.480178 3.014,-0.06381 l 0,0 z m -1.438,3.836009 C 99.961145,6.2177836 76.145147,17.664168 74.779147,18.322789 c 0.038,1.581123 0.333,13.295715 0.333,13.308692 0,0.515865 -0.27,0.988472 -0.697,1.208013 0,0 -41.711,21.636086 -43.729,22.686203 0.875,2.260293 28.72,74.242523 29.71,76.804543 2.236,-1.32914 71.488003,-42.510814 73.346003,-43.616086 -0.819,-2.144576 -30.845,-81.0698984 -31.754,-83.4664574 l -8e-4,-0.0011 z"
     style="fill:url(#linearGradient2874-1);fill-rule:nonzero;stroke:none;display:inline" /><path
     d="m 126.17515,65.015684 -76.555003,41.736476 10.005,27.4512 75.839003,-44.497486 -9.289,-24.69019 0,0 z"
     style="fill:url(#linearGradient2878-1);fill-rule:nonzero;stroke:none;display:inline"
     id="path38" /><path
     d="m 77.487147,34.53201 -0.342,-13.524988 27.184003,-13.0610334 -1.699,-4.466512 -29.087003,13.9770474 0.356,14.174957 -44.787,23.229107 30.689,79.341692 4.003,-2.38034 -29.06,-75.120674 42.742,-22.170338 9.6e-4,0.0011 z"
     style="opacity:0.75;fill:#ffffff;fill-rule:nonzero;stroke:none;display:inline"
     id="path39" /></g></svg>