<?xml version="1.0" encoding="iso-8859-1"?>
<!-- Generator: Adobe Illustrator 10.0.3, SVG Export Plug-In . SVG Version: 3.0.0 Build 77)  -->
<!DOCTYPE svg PUBLIC "-//W3C//DTD SVG 1.0//EN"    "http://www.w3.org/TR/2001/REC-SVG-20010904/DTD/svg10.dtd" [
	<!ENTITY ns_flows "http://ns.adobe.com/Flows/1.0/">
	<!ENTITY ns_svg "http://www.w3.org/2000/svg">
	<!ENTITY ns_xlink "http://www.w3.org/1999/xlink">
]>
<svg  xmlns="&ns_svg;" xmlns:xlink="&ns_xlink;" xmlns:a="http://ns.adobe.com/AdobeSVGViewerExtensions/3.0/"
	 width="128" height="128" viewBox="0 0 128 128" overflow="visible" enable-background="new 0 0 128 128" xml:space="preserve">
	<g id="Layer_1">
		<g>
			<g>
				<path fill="#EBFFFF" d="M1.741,76.341v-9.085L71.42,29.464l54.614,49.581v8.698l-70.453,37.789L1.741,76.341z"/>
				<linearGradient id="XMLID_1_" gradientUnits="userSpaceOnUse" x1="172.2363" y1="130.8311" x2="9.4394" y2="51.7362">
					<stop  offset="0" style="stop-color:#003DC7"/>
					<stop  offset="1" style="stop-color:#6DCDFF"/>
					<a:midPointStop  offset="0" style="stop-color:#003DC7"/>
					<a:midPointStop  offset="0.5" style="stop-color:#003DC7"/>
					<a:midPointStop  offset="1" style="stop-color:#6DCDFF"/>
				</linearGradient>
				<path fill="url(#XMLID_1_)" d="M70.579,29.713L0.9,67.504C0.344,67.812,0,68.396,0,69.03v6.543c0,0.49,0.205,0.956,0.566,1.288
					l53.84,49.191c0.548,0.502,1.354,0.601,2.006,0.244l70.456-37.792c0.562-0.304,0.911-0.893,0.911-1.529v-6.157
					c0-0.49-0.207-0.958-0.572-1.289L72.59,29.948C72.039,29.447,71.23,29.354,70.579,29.713z M71.171,33.368
					c1.762,1.6,52.021,47.225,53.122,48.222c0,1.49,0,2.359,0,4.351c-1.744,0.948-66.367,35.562-68.456,36.701
					c-1.754-1.604-51.262-46.839-52.352-47.836c0-1.484,0-2.768,0-4.746C5.213,69.108,69.089,34.516,71.171,33.368z"/>
				<linearGradient id="XMLID_2_" gradientUnits="userSpaceOnUse" x1="10.3838" y1="78.2617" x2="97.9671" y2="153.624">
					<stop  offset="0" style="stop-color:#E1FFFF"/>
					<stop  offset="1" style="stop-color:#0081FF"/>
					<a:midPointStop  offset="0" style="stop-color:#E1FFFF"/>
					<a:midPointStop  offset="0.5" style="stop-color:#E1FFFF"/>
					<a:midPointStop  offset="1" style="stop-color:#0081FF"/>
				</linearGradient>
				<path fill="url(#XMLID_2_)" d="M55.69,118.642l0.039,0.528L5.297,74.505l-0.046-2.551l47.917,42.434
					c0,0,1.611,1.179,2.083,3.195C55.724,119.6,55.69,118.642,55.69,118.642z"/>
				<linearGradient id="XMLID_3_" gradientUnits="userSpaceOnUse" x1="109.5254" y1="88.2422" x2="40.6183" y2="135.0807">
					<stop  offset="0" style="stop-color:#E1FFFF"/>
					<stop  offset="1" style="stop-color:#0081FF"/>
					<a:midPointStop  offset="0" style="stop-color:#E1FFFF"/>
					<a:midPointStop  offset="0.5" style="stop-color:#E1FFFF"/>
					<a:midPointStop  offset="1" style="stop-color:#0081FF"/>
				</linearGradient>
				<path fill="url(#XMLID_3_)" d="M58.154,119.238l-0.042,0.526l65.079-34.41l0.046-2.551l-62.475,32.181
					c0,0-1.667,1.18-2.156,3.196C58.118,120.198,58.154,119.238,58.154,119.238z"/>
				<linearGradient id="XMLID_4_" gradientUnits="userSpaceOnUse" x1="17.6118" y1="54.8901" x2="127.5607" y2="101.0291">
					<stop  offset="0" style="stop-color:#E1FFFF"/>
					<stop  offset="1" style="stop-color:#0081FF"/>
					<a:midPointStop  offset="0" style="stop-color:#E1FFFF"/>
					<a:midPointStop  offset="0.5" style="stop-color:#E1FFFF"/>
					<a:midPointStop  offset="1" style="stop-color:#0081FF"/>
				</linearGradient>
				<path fill="url(#XMLID_4_)" d="M70.966,34.889l50.914,46.803l-61.134,31.47c0,0-2.3,0.772-3.77,0.64
					c-1.472-0.139-3.268-1.625-3.268-1.625l-47.1-42.177L70.966,34.889z"/>
				<linearGradient id="XMLID_5_" gradientUnits="userSpaceOnUse" x1="57.4092" y1="72.2539" x2="146.2909" y2="93.8468">
					<stop  offset="0" style="stop-color:#74C0FF"/>
					<stop  offset="0.6292" style="stop-color:#001EB1"/>
					<stop  offset="0.9888" style="stop-color:#00006A"/>
					<a:midPointStop  offset="0" style="stop-color:#74C0FF"/>
					<a:midPointStop  offset="0.5" style="stop-color:#74C0FF"/>
					<a:midPointStop  offset="0.6292" style="stop-color:#001EB1"/>
					<a:midPointStop  offset="0.5" style="stop-color:#001EB1"/>
					<a:midPointStop  offset="0.9888" style="stop-color:#00006A"/>
				</linearGradient>
				<path opacity="0.5" fill="url(#XMLID_5_)" enable-background="new    " d="M67.419,67.933
					c19.061-13.511,2.978-28.021,3.547-33.044l49.743,46.671l-62.855,31.461C57.854,113.021,33.62,91.893,67.419,67.933z"/>
			</g>
			<path opacity="0.15" d="M74.36,47.218l-40.418,7.815l23.455,46.913l48.14-9.444L74.36,47.218z"/>
			<g>
				
					<linearGradient id="XMLID_6_" gradientUnits="userSpaceOnUse" x1="2034.9863" y1="4769.501" x2="2083.5564" y2="4798.3682" gradientTransform="matrix(-0.1925 -0.9813 0.9813 -0.1925 -4238.5669 3022.5256)">
					<stop  offset="0" style="stop-color:#D9D9D9"/>
					<stop  offset="1" style="stop-color:#8C99C9"/>
					<a:midPointStop  offset="0" style="stop-color:#D9D9D9"/>
					<a:midPointStop  offset="0.5" style="stop-color:#D9D9D9"/>
					<a:midPointStop  offset="1" style="stop-color:#8C99C9"/>
				</linearGradient>
				<path fill="url(#XMLID_6_)" d="M24.992,49.616c-0.083,0.173-0.076,0.376,0.011,0.55L49.834,99.58
					c0.126,0.242,0.386,0.376,0.642,0.324l51.153-10.033c0.197-0.039,0.359-0.181,0.434-0.373c0.071-0.194,0.043-0.413-0.074-0.584
					L68.948,41.229c-0.135-0.193-0.368-0.295-0.595-0.251l-42.944,8.306C25.227,49.322,25.071,49.441,24.992,49.616z"/>
				<path fill="#FFFFFF" d="M67.615,42.775L27.196,50.59l23.456,46.912l48.14-9.444L67.615,42.775z"/>
				<linearGradient id="XMLID_7_" gradientUnits="userSpaceOnUse" x1="40.5264" y1="96.7275" x2="83.0056" y2="44.8275">
					<stop  offset="0" style="stop-color:#FFFFFF"/>
					<stop  offset="1" style="stop-color:#DFDFEC"/>
					<a:midPointStop  offset="0" style="stop-color:#FFFFFF"/>
					<a:midPointStop  offset="0.5" style="stop-color:#FFFFFF"/>
					<a:midPointStop  offset="1" style="stop-color:#DFDFEC"/>
				</linearGradient>
				<path fill="url(#XMLID_7_)" d="M67.152,45.75l-36.104,6.979l20.874,41.543l43.005-8.436L67.152,45.75z"/>
			</g>
			<g>
				
					<linearGradient id="XMLID_8_" gradientUnits="userSpaceOnUse" x1="-1086.7744" y1="1028.9766" x2="-1078.8097" y2="1028.8" gradientTransform="matrix(0.9121 0.4099 -0.4099 0.9121 1486.1229 -457.4578)">
					<stop  offset="0" style="stop-color:#FFAE00"/>
					<stop  offset="1" style="stop-color:#BB4400"/>
					<a:midPointStop  offset="0" style="stop-color:#FFAE00"/>
					<a:midPointStop  offset="0.5" style="stop-color:#FFAE00"/>
					<a:midPointStop  offset="1" style="stop-color:#BB4400"/>
				</linearGradient>
				<path fill="url(#XMLID_8_)" d="M82.676,61.503l0.081,0.02L106.2,10.207c0.708-1.756-2.22-4.72-6.751-6.781
					c-4.521-2.062-8.682-2.328-9.467-0.612L66.606,54.259c-0.125-0.055-0.248,21.815-0.248,21.815l0.061-0.039l0.001,0.008
					l1.539-1.057L82.676,61.503z"/>
				<path fill="#FFF0DC" d="M67.907,54.534l-0.801,19.938l14.427-13.792l-0.101-0.045c0.108-0.075,0.206-0.157,0.286-0.25
					l0.076,0.034l22.99-50.387l-0.075-0.03c0.688-1.5-1.828-4.115-5.611-5.843c-3.787-1.728-7.408-1.911-8.093-0.412L68.018,54.131
					L67.907,54.534z"/>
				<linearGradient id="XMLID_9_" gradientUnits="userSpaceOnUse" x1="58.4048" y1="80.5264" x2="86.2646" y2="19.9522">
					<stop  offset="0" style="stop-color:#FFFFFF"/>
					<stop  offset="1" style="stop-color:#FFEB00"/>
					<a:midPointStop  offset="0" style="stop-color:#FFFFFF"/>
					<a:midPointStop  offset="0.5" style="stop-color:#FFFFFF"/>
					<a:midPointStop  offset="1" style="stop-color:#FFEB00"/>
				</linearGradient>
				<path fill="url(#XMLID_9_)" d="M91.146,3.443c-0.468,1.152,0.873,2.923,3.201,4.458L71.275,58.465
					c-2.058-1.342-3.262-3.15-3.293-4.309L91.135,3.437L91.146,3.443z"/>
				<linearGradient id="XMLID_10_" gradientUnits="userSpaceOnUse" x1="69.4551" y1="81.1855" x2="96.8934" y2="21.8768">
					<stop  offset="0" style="stop-color:#FFFFD9"/>
					<stop  offset="1" style="stop-color:#FF9A2B"/>
					<a:midPointStop  offset="0" style="stop-color:#FFFFD9"/>
					<a:midPointStop  offset="0.5" style="stop-color:#FFFFD9"/>
					<a:midPointStop  offset="1" style="stop-color:#FF9A2B"/>
				</linearGradient>
				<path fill="url(#XMLID_10_)" d="M81.942,60.22c-0.521,1.144-2.842,1.257-5.511,0.548l23.063-50.542
					c2.619,0.709,4.768,0.544,5.322-0.544l0.144,0.066L82.593,58.771C82.582,58.812,82.062,59.954,81.942,60.22z"/>
				<linearGradient id="XMLID_11_" gradientUnits="userSpaceOnUse" x1="60.5776" y1="89.4199" x2="94.1337" y2="14.9216">
					<stop  offset="0" style="stop-color:#FFFFE8"/>
					<stop  offset="1" style="stop-color:#FFBD00"/>
					<a:midPointStop  offset="0" style="stop-color:#FFFFE8"/>
					<a:midPointStop  offset="0.5" style="stop-color:#FFFFE8"/>
					<a:midPointStop  offset="1" style="stop-color:#FFBD00"/>
				</linearGradient>
				<path fill="url(#XMLID_11_)" d="M73.629,59.755c-0.86-0.392-1.646-0.831-2.354-1.291L94.347,7.901
					c0.723,0.473,1.531,0.929,2.416,1.333c0.935,0.427,1.861,0.757,2.732,0.991L76.432,60.768
					C75.538,60.533,74.587,60.193,73.629,59.755z"/>
				<path opacity="0.4" fill="#000030" d="M67.381,66.612l-0.289,7.919l5.147-4.912c0,0-0.916,0.229-2.619-0.646
					C67.365,67.817,67.381,66.612,67.381,66.612z"/>
				<g opacity="0.1">
					<path fill="#000030" d="M125.904,50.515c-2.268-4.145-5.238-6.882-6.76-6.23L78.891,61.922
						c-0.036-0.064-3.998,4.648-7.368,8.677c-0.007-0.487,0.11-0.687,0.11-0.687l-1.839,2.756c-1.691,2.027-2.942,3.53-2.942,3.53
						l0.066,0.01l-0.005,0.008l1.728,0.248l4.407,0.032l1.558,0.167c0,0-0.067-0.05-0.182-0.155l12.565,0.096l0.053,0.062
						l40.235-17.51C128.762,58.429,128.179,54.667,125.904,50.515z"/>
				</g>
			</g>
		</g>
		<path fill="none" d="M128,128H0V0h128V128z"/>
	</g>
</svg>
