<?xml version="1.0" encoding="UTF-8" standalone="no"?>
<!-- Generator: Adobe Illustrator 9.0, SVG Export Plug-In  -->
<svg
   xmlns:dc="http://purl.org/dc/elements/1.1/"
   xmlns:cc="http://creativecommons.org/ns#"
   xmlns:rdf="http://www.w3.org/1999/02/22-rdf-syntax-ns#"
   xmlns:svg="http://www.w3.org/2000/svg"
   xmlns="http://www.w3.org/2000/svg"
   xmlns:xlink="http://www.w3.org/1999/xlink"
   xmlns:sodipodi="http://sodipodi.sourceforge.net/DTD/sodipodi-0.dtd"
   xmlns:inkscape="http://www.inkscape.org/namespaces/inkscape"
   width="144pt"
   height="144pt"
   viewBox="0 0 144 144"
   xml:space="preserve"
   id="svg2"
   sodipodi:version="0.32"
   inkscape:version="0.46"
   sodipodi:docname="document-open.svg"
   inkscape:output_extension="org.inkscape.output.svg.inkscape"><metadata
   id="metadata104"><rdf:RDF><cc:Work
       rdf:about=""><dc:format>image/svg+xml</dc:format><dc:type
         rdf:resource="http://purl.org/dc/dcmitype/StillImage" /></cc:Work></rdf:RDF></metadata><defs
   id="defs102"><inkscape:perspective
   sodipodi:type="inkscape:persp3d"
   inkscape:vp_x="0 : 90 : 1"
   inkscape:vp_y="0 : 1000 : 0"
   inkscape:vp_z="180 : 90 : 1"
   inkscape:persp3d-origin="90 : 60 : 1"
   id="perspective106" />
		
		
		
	<linearGradient
   inkscape:collect="always"
   xlink:href="#aigrd1"
   id="linearGradient2587"
   gradientUnits="userSpaceOnUse"
   gradientTransform="matrix(0.9982,-5.93e-2,5.93e-2,0.9982,-87.0182,26.8942)"
   x1="124.0576"
   y1="45.453602"
   x2="182.70689"
   y2="80.294701" /><linearGradient
   inkscape:collect="always"
   xlink:href="#aigrd2"
   id="linearGradient2589"
   gradientUnits="userSpaceOnUse"
   gradientTransform="matrix(0.9982,-5.93e-2,5.93e-2,0.9982,-87.0182,26.8942)"
   x1="98.039101"
   y1="61.994598"
   x2="198.9678"
   y2="61.994598" /><linearGradient
   inkscape:collect="always"
   xlink:href="#aigrd3"
   id="linearGradient2591"
   gradientUnits="userSpaceOnUse"
   x1="83.592796"
   y1="85.542999"
   x2="7.9431"
   y2="56.304199" /><linearGradient
   inkscape:collect="always"
   xlink:href="#aigrd4"
   id="linearGradient2593"
   gradientUnits="userSpaceOnUse"
   gradientTransform="matrix(0.8683,-0.496,0.496,0.8683,-612.582,640.8694)"
   x1="839.87207"
   y1="-190.7363"
   x2="903.99011"
   y2="-152.6284" /><linearGradient
   inkscape:collect="always"
   xlink:href="#aigrd5"
   id="linearGradient2595"
   gradientUnits="userSpaceOnUse"
   gradientTransform="matrix(0.9982,-5.93e-2,5.93e-2,0.9982,-87.0182,26.8942)"
   x1="129.5117"
   y1="37.159698"
   x2="180.21719"
   y2="44.310398" /><linearGradient
   inkscape:collect="always"
   xlink:href="#aigrd6"
   id="linearGradient2597"
   gradientUnits="userSpaceOnUse"
   x1="45.662102"
   y1="79.196297"
   x2="87.027603"
   y2="85.017799" /><linearGradient
   inkscape:collect="always"
   xlink:href="#aigrd7"
   id="linearGradient2599"
   gradientUnits="userSpaceOnUse"
   x1="33.1567"
   y1="83.553703"
   x2="94.535004"
   y2="83.553703" /><linearGradient
   inkscape:collect="always"
   xlink:href="#aigrd8"
   id="linearGradient2601"
   gradientUnits="userSpaceOnUse"
   x1="39.574699"
   y1="115.5371"
   x2="111.893"
   y2="91.431099" /><linearGradient
   inkscape:collect="always"
   xlink:href="#aigrd9"
   id="linearGradient2603"
   gradientUnits="userSpaceOnUse"
   x1="29.689501"
   y1="135.16209"
   x2="98.5158"
   y2="100.5903" /><linearGradient
   inkscape:collect="always"
   xlink:href="#aigrd10"
   id="linearGradient2605"
   gradientUnits="userSpaceOnUse"
   x1="94.842796"
   y1="89.805702"
   x2="44.866501"
   y2="70.489799" /><linearGradient
   inkscape:collect="always"
   xlink:href="#aigrd1"
   id="linearGradient2736"
   gradientUnits="userSpaceOnUse"
   gradientTransform="matrix(0.9982,-5.93e-2,5.93e-2,0.9982,-87.0182,26.8942)"
   x1="124.0576"
   y1="45.453602"
   x2="182.70689"
   y2="80.294701" /><linearGradient
   inkscape:collect="always"
   xlink:href="#aigrd2"
   id="linearGradient2738"
   gradientUnits="userSpaceOnUse"
   gradientTransform="matrix(0.9982,-5.93e-2,5.93e-2,0.9982,-87.0182,26.8942)"
   x1="98.039101"
   y1="61.994598"
   x2="198.9678"
   y2="61.994598" /><linearGradient
   inkscape:collect="always"
   xlink:href="#aigrd3"
   id="linearGradient2740"
   gradientUnits="userSpaceOnUse"
   x1="83.592796"
   y1="85.542999"
   x2="7.9431"
   y2="56.304199" /><linearGradient
   inkscape:collect="always"
   xlink:href="#aigrd4"
   id="linearGradient2742"
   gradientUnits="userSpaceOnUse"
   gradientTransform="matrix(0.8683,-0.496,0.496,0.8683,-612.582,640.8694)"
   x1="839.87207"
   y1="-190.7363"
   x2="903.99011"
   y2="-152.6284" /><linearGradient
   inkscape:collect="always"
   xlink:href="#aigrd5"
   id="linearGradient2744"
   gradientUnits="userSpaceOnUse"
   gradientTransform="matrix(0.9982,-5.93e-2,5.93e-2,0.9982,-87.0182,26.8942)"
   x1="129.5117"
   y1="37.159698"
   x2="180.21719"
   y2="44.310398" /><linearGradient
   inkscape:collect="always"
   xlink:href="#aigrd6"
   id="linearGradient2746"
   gradientUnits="userSpaceOnUse"
   x1="45.662102"
   y1="79.196297"
   x2="87.027603"
   y2="85.017799" /><linearGradient
   inkscape:collect="always"
   xlink:href="#aigrd7"
   id="linearGradient2748"
   gradientUnits="userSpaceOnUse"
   x1="33.1567"
   y1="83.553703"
   x2="94.535004"
   y2="83.553703" /><linearGradient
   inkscape:collect="always"
   xlink:href="#aigrd8"
   id="linearGradient2750"
   gradientUnits="userSpaceOnUse"
   x1="39.574699"
   y1="115.5371"
   x2="111.893"
   y2="91.431099" /><linearGradient
   inkscape:collect="always"
   xlink:href="#aigrd9"
   id="linearGradient2752"
   gradientUnits="userSpaceOnUse"
   x1="29.689501"
   y1="135.16209"
   x2="98.5158"
   y2="100.5903" /><linearGradient
   inkscape:collect="always"
   xlink:href="#aigrd10"
   id="linearGradient2754"
   gradientUnits="userSpaceOnUse"
   x1="94.842796"
   y1="89.805702"
   x2="44.866501"
   y2="70.489799" /></defs><sodipodi:namedview
   inkscape:window-height="925"
   inkscape:window-width="1280"
   inkscape:pageshadow="2"
   inkscape:pageopacity="0.0"
   guidetolerance="10.0"
   gridtolerance="10.0"
   objecttolerance="10.0"
   borderopacity="1.0"
   bordercolor="#8A4137"
   pagecolor="#FFFFFF"
   id="base"
   showgrid="false"
   inkscape:zoom="5.7197082"
   inkscape:cx="90"
   inkscape:cy="133.16005"
   inkscape:window-x="0"
   inkscape:window-y="27"
   inkscape:current-layer="svg2" />
	<g
   id="g2662"
   transform="matrix(1.051939,0,0,1.0113235,-6.6096489,-1.616091)"><path
     style="opacity:0.2;fill:#000000;fill-rule:nonzero;stroke:none;stroke-width:0;stroke-miterlimit:4"
     d="M 142.03216,38.284 C 141.68754,38.028 141.22985,37.951 140.81631,38.089 L 119.35431,45.226 L 117.00554,41.385 L 113.26754,28.565 C 113.176,28.247 112.94877,27.981 112.63862,27.829 C 112.33277,27.678 111.96985,27.649 111.63708,27.755 C 111.63708,27.755 110.72923,28.048 109.16231,28.556 L 97.429233,9.36 C 97.300002,9.148 97.06631,9.008 96.796002,8.979 C 96.524617,8.95 96.25431,9.042 96.062617,9.224 L 58.257232,44.719 C 56.607386,43.426 50.034924,38.269 50.034924,38.269 C 49.698924,38.006 49.239078,37.924 48.821232,38.054 L 14.480308,48.856 C 13.830923,49.057 13.473385,49.715 13.679077,50.331 L 44.274462,141.835 C 44.387539,142.171 44.652462,142.445 45.000309,142.577 C 45.092924,142.612 45.192001,142.609 45.288924,142.624 C 45.628155,142.759 46.016924,142.756 46.348616,142.587 L 132.93539,99.456 C 133.28539,99.281 133.52554,98.96 133.58262,98.589 L 142.47908,39.369 C 142.54154,38.959 142.36816,38.546 142.03216,38.283 L 142.03216,38.284 z"
     id="path7" /><g
     transform="scale(1.0769231,1)"
     style="fill:#FFFFFF;fill-rule:nonzero;stroke:none;stroke-width:0;stroke-miterlimit:4"
     id="g9">
			<g
   id="g11">
				<linearGradient
   id="aigrd1"
   gradientUnits="userSpaceOnUse"
   x1="124.0576"
   y1="45.453602"
   x2="182.70689"
   y2="80.294701"
   gradientTransform="matrix(0.9982,-5.93e-2,5.93e-2,0.9982,-87.0182,26.8942)">
					<stop
   offset="0"
   style="stop-color:#FFFFFF"
   id="stop14" />
					<stop
   offset="1"
   style="stop-color:#DCD1FF"
   id="stop16" />
				</linearGradient>
				<path
   style="fill:url(#linearGradient2736)"
   d="M 36.23,135.482 L 7.819,43.977 L 39.71,33.175 L 48.107,40.268 L 98.05,22.873 L 116.787,92.106 L 36.23,135.482 z"
   id="path18" />
				<linearGradient
   id="aigrd2"
   gradientUnits="userSpaceOnUse"
   x1="98.039101"
   y1="61.994598"
   x2="198.9678"
   y2="61.994598"
   gradientTransform="matrix(0.9982,-5.93e-2,5.93e-2,0.9982,-87.0182,26.8942)">
					<stop
   offset="0"
   style="stop-color:#B5E75D"
   id="stop21" />
					<stop
   offset="1"
   style="stop-color:#009900"
   id="stop23" />
				</linearGradient>
				<path
   style="fill:url(#linearGradient2738)"
   d="M 39.404,133.386 L 12.337,46.194 L 42.722,35.9 L 50.722,42.658 L 98.31,26.085 L 116.164,92.056 L 39.404,133.385 L 39.404,133.386 z"
   id="path25" />
				<linearGradient
   id="aigrd3"
   gradientUnits="userSpaceOnUse"
   x1="83.592796"
   y1="85.542999"
   x2="7.9431"
   y2="56.304199">
					<stop
   offset="0"
   style="stop-color:#004700"
   id="stop28" />
					<stop
   offset="1"
   style="stop-color:#008600"
   id="stop30" />
				</linearGradient>
				<path
   style="fill:url(#linearGradient2740)"
   d="M 39.334,32.053 L 7.446,42.856 C 6.843,43.057 6.511,43.715 6.702,44.331 L 35.112,135.835 C 35.217,136.171 35.463,136.445 35.786,136.577 C 36.11,136.71 36.474,136.694 36.782,136.528 L 117.344,93.149 C 117.821,92.889 118.064,92.326 117.92,91.796 L 99.178,22.564 C 99.093,22.246 98.882,21.98 98.594,21.828 C 98.31,21.677 97.973,21.648 97.664,21.754 C 97.664,21.754 49.572,38.504 48.35,38.932 C 47.451,38.174 40.462,32.268 40.462,32.268 C 40.15,32.005 39.723,31.923 39.335,32.053 L 39.334,32.053 z M 39.463,34.508 C 40.353,35.261 47.358,41.176 47.358,41.176 C 47.671,41.441 48.102,41.521 48.49,41.384 C 48.49,41.384 94.991,25.186 97.247,24.403 C 97.877,26.725 114.936,89.766 115.407,91.507 C 113.822,92.36 39.316,132.477 36.925,133.769 C 36.114,131.153 9.941,46.852 9.282,44.729 C 11.268,44.057 38.308,34.897 39.464,34.508 L 39.463,34.508 z"
   id="path32" />
			</g>
			<path
   style="opacity:0.1;fill:#000013"
   d="M 110.043,59.327 L 81.537,9.11 L 30.201,61.019 L 64.329,120.77 L 110.043,59.327 z"
   id="path34" />
			<linearGradient
   id="aigrd4"
   gradientUnits="userSpaceOnUse"
   x1="839.87207"
   y1="-190.7363"
   x2="903.99011"
   y2="-152.6284"
   gradientTransform="matrix(0.8683,-0.496,0.496,0.8683,-612.582,640.8694)">
				<stop
   offset="0"
   style="stop-color:#ECC5BC"
   id="stop37" />
				<stop
   offset="1"
   style="stop-color:#B174A4"
   id="stop39" />
			</linearGradient>
			<path
   style="fill:url(#linearGradient2742)"
   d="M 83.882,2.979 C 83.63,2.95 83.379,3.042 83.201,3.224 L 31.864,55.132 C 31.612,55.388 31.555,55.772 31.726,56.071 L 65.855,115.824 C 65.986,116.053 66.23,116.197 66.503,116.207 C 66.776,116.217 67.038,116.089 67.202,115.869 L 112.912,54.426 C 113.099,54.176 113.124,53.842 112.975,53.577 L 84.47,3.36 C 84.35,3.148 84.133,3.008 83.882,2.979 L 83.882,2.979 z"
   id="path41" />
			<path
   d="M 110.418,53.41 L 83.594,6.148 L 34.807,55.276 L 66.925,111.508 L 110.418,53.41 L 110.418,53.41 z"
   id="path43" />
			<linearGradient
   id="aigrd5"
   gradientUnits="userSpaceOnUse"
   x1="129.5117"
   y1="37.159698"
   x2="180.21719"
   y2="44.310398"
   gradientTransform="matrix(0.9982,-5.93e-2,5.93e-2,0.9982,-87.0182,26.8942)">
				<stop
   offset="0"
   style="stop-color:#FFFFFF"
   id="stop46" />
				<stop
   offset="1"
   style="stop-color:#EFCEDB"
   id="stop48" />
			</linearGradient>
			<path
   style="fill:url(#linearGradient2744)"
   d="M 106.502,54.086 L 82.542,11.868 L 39.382,55.507 L 68.074,105.739 L 106.502,54.086 L 106.502,54.086 z"
   id="path50" />
			<linearGradient
   id="aigrd6"
   gradientUnits="userSpaceOnUse"
   x1="45.662102"
   y1="79.196297"
   x2="87.027603"
   y2="85.017799">
				<stop
   offset="0"
   style="stop-color:#FFFFFF"
   id="stop53" />
				<stop
   offset="0.2079"
   style="stop-color:#80FA24"
   id="stop55" />
				<stop
   offset="1"
   style="stop-color:#007E00"
   id="stop57" />
			</linearGradient>
			<path
   style="opacity:0.6;fill:url(#linearGradient2746)"
   d="M 37.055,135.395 L 41.701,73.054 L 67.57,61.774 L 74.482,51.403 L 125.711,33.052 L 117.45,92.269 L 37.054,135.394 L 37.055,135.395 z"
   id="path59" />
			<linearGradient
   id="aigrd7"
   gradientUnits="userSpaceOnUse"
   x1="33.1567"
   y1="83.553703"
   x2="94.535004"
   y2="83.553703">
				<stop
   offset="0.1067"
   style="stop-color:#6ED82A"
   id="stop62" />
				<stop
   offset="0.2294"
   style="stop-color:#66CE26"
   id="stop64" />
				<stop
   offset="0.407"
   style="stop-color:#4FB31A"
   id="stop66" />
				<stop
   offset="0.6171"
   style="stop-color:#278A0A"
   id="stop68" />
				<stop
   offset="0.7753"
   style="stop-color:#006A00"
   id="stop70" />
				<stop
   offset="1"
   style="stop-color:#003300"
   id="stop72" />
			</linearGradient>
			<path
   style="opacity:0.5;fill:url(#linearGradient2748)"
   d="M 36.61,133.684 L 38.312,117.857 C 38.312,117.857 53.123,82.223 87.215,71.429 C 116.566,62.141 124.709,33.425 124.709,33.425 L 117.012,90.559 L 36.61,133.684 z"
   id="path74" />
			<linearGradient
   id="aigrd8"
   gradientUnits="userSpaceOnUse"
   x1="39.574699"
   y1="115.5371"
   x2="111.893"
   y2="91.431099">
				<stop
   offset="0"
   style="stop-color:#FFFFFF"
   id="stop77" />
				<stop
   offset="1"
   style="stop-color:#D1909E"
   id="stop79" />
			</linearGradient>
			<path
   style="fill:url(#linearGradient2750)"
   d="M 37.807,133.5 L 39.605,112.385 L 118.74,71.775 L 115.824,91.654 L 37.807,133.5 z"
   id="path81" />
			<linearGradient
   id="aigrd9"
   gradientUnits="userSpaceOnUse"
   x1="29.689501"
   y1="135.16209"
   x2="98.5158"
   y2="100.5903">
				<stop
   offset="0"
   style="stop-color:#FFFFFF"
   id="stop84" />
				<stop
   offset="1"
   style="stop-color:#9F574E"
   id="stop86" />
			</linearGradient>
			<path
   style="opacity:0.46000001;fill:url(#linearGradient2752)"
   d="M 37.807,133.5 L 38.62,129.117 L 117.755,88.508 L 115.823,91.654 L 37.807,133.5 z"
   id="path88" />
			<g
   id="g90">
				<path
   style="opacity:0.8"
   d="M 71.031,63.792 L 77.982,53.476 L 124.106,37 L 124.717,32.706 L 73.349,51.054 L 66.393,61.372 L 40.45,72.637 L 35.635,134.55 L 40.668,131.863 L 45.087,75.056 L 71.031,63.792 L 71.031,63.792 z"
   id="path92" />
			</g>
			<linearGradient
   id="aigrd10"
   gradientUnits="userSpaceOnUse"
   x1="94.842796"
   y1="89.805702"
   x2="44.866501"
   y2="70.489799">
				<stop
   offset="0"
   style="stop-color:#004700"
   id="stop95" />
				<stop
   offset="1"
   style="stop-color:#008600"
   id="stop97" />
			</linearGradient>
			<path
   style="fill:url(#linearGradient2754)"
   d="M 124.758,32.088 L 73.531,50.433 C 73.297,50.517 73.093,50.674 72.958,50.886 C 72.958,50.886 66.598,60.431 66.237,60.97 C 65.63,61.238 40.675,72.117 40.675,72.117 C 40.279,72.288 40.011,72.665 39.978,73.103 L 35.332,135.446 C 35.32,135.58 35.333,135.713 35.368,135.838 C 35.439,136.114 35.612,136.363 35.857,136.527 C 36.209,136.764 36.664,136.793 37.038,136.588 L 117.44,93.457 C 117.765,93.282 117.988,92.961 118.041,92.59 L 126.302,33.37 C 126.36,32.96 126.199,32.547 125.887,32.284 C 125.567,32.028 125.142,31.951 124.758,32.089 L 124.758,32.088 z M 123.73,34.97 C 123.232,38.554 115.983,90.524 115.83,91.655 C 114.822,92.192 41.345,131.604 37.81,133.501 C 38.106,129.56 42.149,75.355 42.248,74.017 C 43.471,73.482 67.473,63.017 67.473,63.017 C 67.676,62.929 67.851,62.784 67.974,62.6 C 67.974,62.6 74.269,53.146 74.672,52.545 C 75.349,52.298 120.383,36.169 123.73,34.972 L 123.73,34.97 z"
   id="path99" />
		</g></g>
</svg>