<?xml version="1.0" encoding="UTF-8" standalone="no"?>
<!-- Created with Inkscape (http://www.inkscape.org/) -->
<svg
   xmlns:a="http://ns.adobe.com/AdobeSVGViewerExtensions/3.0/"
   xmlns:xml="http://www.w3.org/XML/1998/namespace"
   xmlns:dc="http://purl.org/dc/elements/1.1/"
   xmlns:cc="http://web.resource.org/cc/"
   xmlns:rdf="http://www.w3.org/1999/02/22-rdf-syntax-ns#"
   xmlns:svg="http://www.w3.org/2000/svg"
   xmlns="http://www.w3.org/2000/svg"
   xmlns:xlink="http://www.w3.org/1999/xlink"
   xmlns:sodipodi="http://inkscape.sourceforge.net/DTD/sodipodi-0.dtd"
   xmlns:inkscape="http://www.inkscape.org/namespaces/inkscape"
   xml:space="preserve"
   id="svg1"
   viewBox="0 0 125.957 125.956"
   height="48.000000pt"
   width="48.000000pt"
   y="0.0000000"
   x="0.0000000"
   version="1.0"
   sodipodi:version="0.32"
   inkscape:version="0.41"
   sodipodi:docname="crsc-action-bottom.svgz"
   sodipodi:docbase="/home/danny/work/kde/crystal/arrows/SVGZ"
   inkscape:export-filename="/home/diau/graphics/kde/icons/arrows/cr22-action-next.png"
   inkscape:export-xdpi="15.719650"
   inkscape:export-ydpi="15.719650"><metadata
   id="metadata47">
  <rdf:RDF
   id="RDF49">
    <cc:Work
   rdf:about=""
   id="Work51">
      <dc:format
   id="format53">image/svg+xml</dc:format>





      <dc:type
   id="type55"
   rdf:resource="http://purl.org/dc/dcmitype/StillImage" />





    </cc:Work>





  </rdf:RDF>





</metadata>





<sodipodi:namedview
   inkscape:current-layer="svg1"
   inkscape:window-y="0"
   inkscape:window-x="0"
   id="base"
   pagecolor="#ffFFff"
   bordercolor="#664266"
   borderopacity="1.0"
   inkscape:pageopacity="0.0"
   inkscape:pageshadow="2"
   inkscape:window-width="1020"
   inkscape:window-height="691"
   inkscape:cy="70.950491"
   inkscape:cx="81.468155"
   inkscape:zoom="3.4732669" />





<defs
   id="defs106">
  <linearGradient
   id="linearGradient1865">
    <stop
   id="stop2120"
   offset="0.0000000"
   style="stop-color:#8bC941;stop-opacity:1.0000000;" />








    <stop
   id="stop1866"
   offset="1.0000000"
   style="stop-color:#1b5500;stop-opacity:1.0000000;" />








  </linearGradient>







  <linearGradient
   id="linearGradient1862">
    <stop
   id="stop1864"
   offset="0.0000000"
   style="stop-color:#cdDEa4;stop-opacity:1.0000000;" />








    <stop
   id="stop1863"
   offset="1.0000000"
   style="stop-color:#68A800;stop-opacity:1.0000000;" />








  </linearGradient>







  <linearGradient
   gradientUnits="userSpaceOnUse"
   id="XMLID_3_"
   y2="87.998100"
   x2="63.957001"
   y1="-17.000000"
   x1="63.957001">
			<stop
   id="stop49"
   offset="0.0000000"
   style="stop-color:#ffFFff;stop-opacity:1.0000000;" />











			<stop
   id="stop51"
   offset="1.0000000"
   style="stop-color:#ffFFff;stop-opacity:0.0000000;" />











		</linearGradient>







  <linearGradient
   gradientUnits="userSpaceOnUse"
   id="XMLID_4_"
   y2="73.889198"
   x2="73.836899"
   y1="10.392100"
   x1="10.339800">
			<stop
   id="stop58"
   offset="0.0000000"
   style="stop-color:#ffFFff;stop-opacity:1.0000000;" />











			<stop
   id="stop60"
   offset="1.0000000"
   style="stop-color:#ffFFff;stop-opacity:0.0000000;" />











		</linearGradient>







  <linearGradient
   gradientUnits="userSpaceOnUse"
   id="XMLID_5_"
   y2="65.001404"
   x2="62.997101"
   y1="168.50290"
   x1="62.997101">
			<stop
   id="stop67"
   offset="0.0000000"
   style="stop-color:#ffFFff;stop-opacity:1.0000000;" />











			<stop
   id="stop69"
   offset="1.0000000"
   style="stop-color:#ffFFff;stop-opacity:0.0000000;" />











		</linearGradient>







  <linearGradient
   gradientTransform="matrix(0.999900,-1.010000e-2,1.010000e-2,0.999900,-1.144400,0.354300)"
   gradientUnits="userSpaceOnUse"
   id="XMLID_7_"
   y2="164.30850"
   x2="33.114700"
   y1="-141.01460"
   x1="33.114700">
			<stop
   id="stop96"
   offset="0.0000000"
   style="stop-color:#ffFFff;stop-opacity:1.0000000;" />











			<stop
   id="stop98"
   offset="1.0000000"
   style="stop-color:#ffFFff;stop-opacity:0.0000000;" />











		</linearGradient>







  <linearGradient
   gradientTransform="matrix(-1.000000,0.000000,0.000000,1.000000,122.4541,0.000000)"
   gradientUnits="userSpaceOnUse"
   id="XMLID_6_"
   y2="141.41890"
   x2="61.226601"
   y1="51.561001"
   x1="61.226601">
				<stop
   id="stop78"
   offset="0.0000000"
   style="stop-color:#004C00;stop-opacity:1.0000000;" />











				<stop
   id="stop80"
   offset="1.0000000"
   style="stop-color:#95D339;stop-opacity:1.0000000;" />











				<a:midPointStop
   offset="0"
   style="stop-color:#004C00"
   id="midPointStop82" />











				<a:midPointStop
   offset="0.5"
   style="stop-color:#004C00"
   id="midPointStop84" />











				<a:midPointStop
   offset="1"
   style="stop-color:#95D339"
   id="midPointStop86" />











			</linearGradient>







  <linearGradient
   gradientUnits="userSpaceOnUse"
   xlink:href="#linearGradient1862"
   id="linearGradient1344"
   y2="61.896500"
   x2="62.977501"
   y1="182.56740"
   x1="62.977501" />







  <linearGradient
   gradientUnits="userSpaceOnUse"
   xlink:href="#XMLID_3_"
   id="linearGradient1346"
   y2="77.436874"
   x2="65.109993"
   y1="13.567519"
   x1="65.109993" />







  <linearGradient
   gradientUnits="userSpaceOnUse"
   xlink:href="#XMLID_4_"
   id="linearGradient1348"
   y2="73.889198"
   x2="73.836899"
   y1="25.929346"
   x1="26.564838" />







  <linearGradient
   gradientUnits="userSpaceOnUse"
   xlink:href="#XMLID_5_"
   id="linearGradient1350"
   y2="65.001404"
   x2="62.997101"
   y1="168.50290"
   x1="62.997101" />







  <linearGradient
   gradientTransform="matrix(-1.000000,0.000000,0.000000,1.000000,122.4541,0.000000)"
   gradientUnits="userSpaceOnUse"
   xlink:href="#XMLID_6_"
   id="linearGradient1352"
   y2="141.41890"
   x2="61.226601"
   y1="51.561001"
   x1="61.226601" />







  <linearGradient
   gradientTransform="matrix(0.999949,-1.010049e-2,1.010049e-2,0.999949,0.000000,-1.610417e-23)"
   gradientUnits="userSpaceOnUse"
   xlink:href="#XMLID_7_"
   id="linearGradient1354"
   y2="60.985329"
   x2="53.820477"
   y1="21.613750"
   x1="31.052742" />







  <linearGradient
   gradientUnits="userSpaceOnUse"
   xlink:href="#linearGradient1865"
   id="linearGradient2118"
   y2="25.958462"
   x2="54.390072"
   y1="177.88280"
   x1="54.390072" />







<linearGradient
   gradientTransform="scale(1.000004,0.999996)"
   gradientUnits="userSpaceOnUse"
   xlink:href="#linearGradient1865"
   id="linearGradient2089"
   y2="41.343369"
   x2="55.344120"
   y1="154.80630"
   x1="55.344120" />






<linearGradient
   gradientTransform="scale(1.000004,0.999996)"
   gradientUnits="userSpaceOnUse"
   xlink:href="#linearGradient1865"
   id="linearGradient2092"
   y2="41.343369"
   x2="55.344120"
   y1="154.80630"
   x1="55.344120" />







  


  


  


  


  


  


  


  










  
  
  
  
  
  
  
  








  
  
  
  
  
  
  
  
<linearGradient
   y2="60.985329"
   x2="53.820477"
   y1="21.613750"
   x1="31.052742"
   gradientTransform="matrix(0.987913,-9.978910e-3,9.978910e-3,0.987913,0.758045,0.758039)"
   gradientUnits="userSpaceOnUse"
   id="linearGradient1339"
   xlink:href="#XMLID_7_"
   inkscape:collect="always" />


<linearGradient
   y2="72.228645"
   x2="-51.325409"
   y1="26.222963"
   x1="-50.755363"
   gradientTransform="matrix(-1.693595e-16,-1.081763,0.924417,-1.447256e-16,8.000000,4.000000)"
   gradientUnits="userSpaceOnUse"
   id="linearGradient1343"
   xlink:href="#linearGradient1865"
   inkscape:collect="always" />


<linearGradient
   y2="65.001404"
   x2="62.997101"
   y1="168.50290"
   x1="62.997101"
   gradientTransform="matrix(0.987963,0.000000,0.000000,0.987963,0.758045,0.758039)"
   gradientUnits="userSpaceOnUse"
   id="linearGradient1347"
   xlink:href="#XMLID_5_"
   inkscape:collect="always" />


<linearGradient
   y2="73.889198"
   x2="73.836899"
   y1="25.929346"
   x1="26.564838"
   gradientTransform="matrix(0.987963,0.000000,0.000000,0.987963,0.758045,0.758039)"
   gradientUnits="userSpaceOnUse"
   id="linearGradient1353"
   xlink:href="#XMLID_4_"
   inkscape:collect="always" />


<linearGradient
   y2="77.436874"
   x2="65.109993"
   y1="13.567519"
   x1="65.109993"
   gradientTransform="matrix(0.987963,0.000000,0.000000,0.987963,0.758045,0.758039)"
   gradientUnits="userSpaceOnUse"
   id="linearGradient1356"
   xlink:href="#XMLID_3_"
   inkscape:collect="always" />


<linearGradient
   y2="61.896500"
   x2="62.977501"
   y1="182.56740"
   x1="62.977501"
   gradientTransform="matrix(0.987963,0.000000,0.000000,0.987963,0.758045,0.758039)"
   gradientUnits="userSpaceOnUse"
   id="linearGradient1359"
   xlink:href="#linearGradient1862"
   inkscape:collect="always" />


<linearGradient
   y2="41.343369"
   x2="55.344120"
   y1="154.80630"
   x1="55.344120"
   gradientTransform="matrix(0.987967,0.000000,0.000000,0.987959,0.758045,0.758039)"
   gradientUnits="userSpaceOnUse"
   id="linearGradient1362"
   xlink:href="#linearGradient1865"
   inkscape:collect="always" />



  
  
  
  
  
  
  
  
<linearGradient
   inkscape:collect="always"
   xlink:href="#XMLID_7_"
   id="linearGradient1340"
   gradientUnits="userSpaceOnUse"
   gradientTransform="matrix(0.987913,-9.978910e-3,9.978910e-3,0.987913,0.758045,0.758039)"
   x1="31.052742"
   y1="21.613750"
   x2="53.820477"
   y2="60.985329" />

<linearGradient
   inkscape:collect="always"
   xlink:href="#linearGradient1865"
   id="linearGradient1345"
   gradientUnits="userSpaceOnUse"
   gradientTransform="matrix(-1.693595e-16,1.081763,0.924417,1.447256e-16,8.000000,129.0933)"
   x1="-50.755363"
   y1="26.222963"
   x2="-51.325409"
   y2="72.228645" />

<linearGradient
   inkscape:collect="always"
   xlink:href="#XMLID_5_"
   id="linearGradient1349"
   gradientUnits="userSpaceOnUse"
   gradientTransform="matrix(0.987963,0.000000,0.000000,0.987963,0.758045,0.758039)"
   x1="62.997101"
   y1="168.50290"
   x2="62.997101"
   y2="65.001404" />

<linearGradient
   inkscape:collect="always"
   xlink:href="#XMLID_4_"
   id="linearGradient1355"
   gradientUnits="userSpaceOnUse"
   gradientTransform="matrix(0.987963,0.000000,0.000000,0.987963,0.758045,0.758039)"
   x1="26.564838"
   y1="25.929346"
   x2="73.836899"
   y2="73.889198" />

<linearGradient
   inkscape:collect="always"
   xlink:href="#XMLID_3_"
   id="linearGradient1358"
   gradientUnits="userSpaceOnUse"
   gradientTransform="matrix(0.987963,0.000000,0.000000,0.987963,0.758045,0.758039)"
   x1="65.109993"
   y1="13.567519"
   x2="65.109993"
   y2="77.436874" />

<linearGradient
   inkscape:collect="always"
   xlink:href="#linearGradient1862"
   id="linearGradient1361"
   gradientUnits="userSpaceOnUse"
   gradientTransform="matrix(0.987963,0.000000,0.000000,0.987963,0.758045,0.758039)"
   x1="62.977501"
   y1="182.56740"
   x2="62.977501"
   y2="61.896500" />

<linearGradient
   inkscape:collect="always"
   xlink:href="#linearGradient1865"
   id="linearGradient1364"
   gradientUnits="userSpaceOnUse"
   gradientTransform="matrix(0.987967,0.000000,0.000000,0.987959,0.758045,0.758039)"
   x1="55.344120"
   y1="154.80630"
   x2="55.344120"
   y2="41.343369" />

</defs>



















	





















<g
   transform="matrix(1.012139,0.000000,0.000000,1.012139,-0.764468,-0.764464)"
   id="g1366">
  <path
   id="path18"
   style="fill:url(#linearGradient1364);fill-opacity:1.0000000"
   d="M 125.19890,62.347652 C 125.54666,96.710981 97.969652,124.85014 63.607311,125.19791 C 29.243982,125.54567 1.1058080,97.969646 0.75804500,63.606317 C 0.41028202,29.243976 27.985317,1.1058020 62.347658,0.75803900 C 96.711975,0.41027602 124.85015,27.985311 125.19890,62.347652 z " />

  <path
   id="path45"
   style="fill:url(#linearGradient1361);fill-opacity:1.0000000"
   d="M 118.60919,62.413846 C 118.91941,93.139495 94.264791,118.29797 63.540130,118.60918 C 32.816456,118.91940 7.6569906,94.264785 7.3457823,63.540124 C 7.0355619,32.816450 31.691167,7.6559967 62.414840,7.3457763 C 93.140489,7.0355559 118.29897,31.691161 118.60919,62.413846 z " />

  <path
   id="path54"
   style="fill:url(#linearGradient1358);fill-opacity:1.0000000"
   d="M 63.449237,11.878551 C 36.372135,12.152216 14.642877,34.326058 14.916543,61.402172 C 14.931362,62.894984 15.024231,64.368037 15.170449,65.825282 C 28.707518,71.476431 44.921967,74.688298 62.326911,74.512441 C 81.324452,74.320776 98.826216,70.122921 112.91654,63.188409 C 112.95903,62.268615 112.97977,61.342894 112.97286,60.410257 C 112.69919,33.334143 90.527327,11.604885 63.449237,11.878551 z " />

  <path
   id="path63"
   style="fill:url(#linearGradient1355);fill-opacity:1.0000000"
   d="M 64.943037,17.198731 C 89.377338,16.951741 109.94969,34.007934 115.02782,56.951399 C 112.01157,30.627124 89.526521,10.309665 62.447443,10.583331 C 33.510994,10.875768 10.290900,34.572061 10.583337,63.507521 C 10.731531,78.157036 16.883577,91.332511 26.670339,100.74187 C 19.299147,92.027049 14.805891,80.790946 14.681408,68.486855 C 14.397862,40.444513 36.900695,17.482277 64.943037,17.198731 z " />

  <path
   id="path72"
   style="opacity:0.49999997;fill:url(#linearGradient1349)"
   d="M 63.435406,110.14728 C 37.308724,110.41205 15.752359,90.210185 13.983906,64.476713 C 13.937471,65.441953 13.909808,66.411144 13.920676,67.389228 C 14.194342,94.495968 36.389919,116.24499 63.493696,115.97033 C 90.599448,115.69667 112.34748,93.503066 112.07381,66.396325 C 112.06393,65.419229 112.01750,64.449050 111.95032,63.485786 C 110.70351,89.249885 89.561099,109.88250 63.435406,110.14728 z " />

  <path
   style="opacity:0.20000000;fill:url(#linearGradient1345);fill-opacity:1.0000000"
   d="M 31.625001,57.031249 C 31.644760,55.091631 32.410969,53.183405 33.906251,51.718749 C 36.894840,48.788451 41.664441,48.823911 44.593751,51.812499 L 58.437501,65.906249 L 58.812501,28.656249 C 58.854984,24.471239 62.284727,21.113769 66.468751,21.156249 C 70.652773,21.198729 74.011233,24.627489 73.968751,28.812499 C 73.968755,28.812499 73.760716,49.604024 73.593751,66.062499 C 80.635948,59.162565 87.687501,52.249999 87.687501,52.249999 C 89.182286,50.785837 91.124118,50.073990 93.062501,50.093749 C 95.001871,50.113507 96.943078,50.881199 98.406251,52.374999 C 101.33556,55.364573 101.26984,60.166415 98.281251,63.093749 L 71.968751,88.906249 L 95.218751,88.906249 C 98.236538,88.906249 100.65625,91.828332 100.65625,95.437500 C 100.65625,99.046660 98.236541,101.93750 95.218751,101.93750 L 37.281251,101.93750 C 34.263464,101.93750 31.843751,99.046660 31.843751,95.437500 C 31.843751,91.828335 34.263466,88.906249 37.281251,88.906249 L 59.718751,88.906249 L 33.781251,62.437499 C 32.315608,60.942217 31.605242,58.970867 31.625001,57.031249 z "
   id="path2127" />

  <path
   style="fill:#ffFFff;fill-opacity:1.0000000"
   d="M 29.625001,55.031249 C 29.644760,53.091631 30.410969,51.183405 31.906251,49.718749 C 34.894840,46.788451 39.664441,46.823911 42.593751,49.812499 L 56.437501,63.906249 L 56.812501,26.656249 C 56.854984,22.471239 60.284727,19.113769 64.468751,19.156249 C 68.652773,19.198729 72.011233,22.627489 71.968751,26.812499 C 71.968755,26.812499 71.760716,47.604024 71.593751,64.062499 C 78.635948,57.162565 85.687501,50.249999 85.687501,50.249999 C 87.182286,48.785837 89.124118,48.073990 91.062501,48.093749 C 93.001871,48.113507 94.943078,48.881199 96.406251,50.374999 C 99.335562,53.364573 99.269839,58.166415 96.281251,61.093749 L 69.968751,86.906249 L 93.218751,86.906249 C 96.236538,86.906249 98.656250,89.828330 98.656251,93.437500 C 98.656251,97.046660 96.236541,99.937500 93.218751,99.937500 L 35.281251,99.937500 C 32.263464,99.937500 29.843751,97.046660 29.843751,93.437500 C 29.843751,89.828330 32.263466,86.906249 35.281251,86.906249 L 57.718751,86.906249 L 31.781251,60.437499 C 30.315608,58.942217 29.605242,56.970867 29.625001,55.031249 z "
   id="path91" />

  <path
   id="path101"
   style="opacity:0.60000002;fill:url(#linearGradient1340);fill-opacity:1.0000000"
   d="M 53.044011,30.436448 C 48.047882,26.375920 42.277190,23.388319 36.013505,21.800663 C 24.896945,29.477135 16.427138,41.683418 12.497021,56.200547 C 18.167929,53.387816 24.455326,51.781388 31.093449,51.714207 C 32.775950,51.697411 34.434740,51.788304 36.070807,51.968113 C 40.158997,43.321461 45.994895,35.933474 53.044011,30.436448 z " />

</g>













</svg>
